<?xml version="1.0" encoding="utf-8"?>
<!-- Generator: Adobe Illustrator 13.0.1, SVG Export Plug-In . SVG Version: 6.00 Build 14948)  -->
<!DOCTYPE svg PUBLIC "-//W3C//DTD SVG 1.1//EN" "http://www.w3.org/Graphics/SVG/1.1/DTD/svg11.dtd">
<svg version="1.1" id="Layer_1" xmlns="http://www.w3.org/2000/svg" xmlns:xlink="http://www.w3.org/1999/xlink" x="0px" y="0px"
	 width="250px" height="30px" viewBox="0 0 250 30" enable-background="new 0 0 250 30" xml:space="preserve">
<path fill="#FFFFFF" d="M30.934,3.819c-6.189,0-11.228,5.041-11.228,11.232c0,6.189,5.039,11.226,11.228,11.226
	c6.19,0,11.225-5.037,11.225-11.226C42.159,8.86,37.124,3.819,30.934,3.819z M35.004,21.268h-3.621l-0.946-0.965h-3.733v-0.996
	h3.733l0.946-0.982h3.621V21.268z M35.004,16.518h-3.621l-0.946-0.963h-3.733v-0.999h3.733l0.946-0.978h3.621V16.518z
	 M35.004,11.749h-3.621l-0.946-0.965h-3.733V9.786h3.733l0.946-0.975h3.621V11.749z M44.918,11.748
	c-1.46-6.717-7.301-11.557-14.016-11.557c-4.452,0-8.675,2.154-11.387,5.786c-0.987-0.378-2.014-0.569-3.061-0.569
	c-3.672,0-7.019,2.371-8.811,6.213c-4.134,0.357-7.32,3.798-7.32,7.99c0,4.424,3.6,8.025,8.024,8.025
	c0.705,0,1.403-0.093,2.079-0.273c1.692,1.305,3.712,1.992,5.859,1.992c2.345,0,4.802-0.851,6.417-2.201
	c2.413,1.734,5.237,2.648,8.2,2.648c2.794,0,5.491-0.824,7.822-2.388c1.009,0.413,2.076,0.623,3.174,0.623
	c4.646,0,8.425-3.78,8.425-8.427C50.323,16.111,48.165,12.993,44.918,11.748z M30.934,27.283c-6.744,0-12.233-5.487-12.233-12.232
	c0-6.747,5.489-12.235,12.233-12.235c6.745,0,12.23,5.488,12.23,12.235C43.164,21.796,37.68,27.283,30.934,27.283z"/>
<g>
	<polygon fill="#FFFFFF" points="89.531,13.356 89.531,14.139 92.485,14.139 93.247,14.904 96.097,14.904 96.097,12.594 
		93.247,12.594 92.485,13.356 	"/>
	<polygon fill="#FFFFFF" points="89.531,20.893 89.531,21.676 92.485,21.676 93.247,22.438 96.097,22.438 96.097,20.105 
		93.247,20.105 92.485,20.893 	"/>
	<polygon fill="#FFFFFF" points="89.531,17.135 89.531,17.917 92.485,17.917 93.247,18.682 96.097,18.682 96.097,16.352 
		93.247,16.352 92.485,17.135 	"/>
	<path fill="#FFFFFF" d="M83.215,17.527l0.012,0.494l0.038,0.492l0.062,0.482l0.083,0.475l0.108,0.469l0.129,0.457l0.154,0.445
		l0.174,0.439l0.192,0.427l0.213,0.417l0.233,0.404l0.254,0.396l0.268,0.379l0.287,0.362l0.304,0.349l0.321,0.34l0.337,0.32
		l0.35,0.303l0.362,0.287l0.38,0.266l0.392,0.256l0.409,0.232l0.416,0.211l0.425,0.192l0.441,0.177l0.446,0.153l0.458,0.128
		l0.467,0.109l0.475,0.082l0.482,0.064l0.493,0.037l0.496,0.012l0.5-0.012l0.492-0.037l0.482-0.064l0.476-0.082l0.471-0.109
		l0.458-0.128l0.45-0.153l0.441-0.177l0.425-0.192l0.421-0.211l0.404-0.232l0.391-0.256l0.378-0.266l0.367-0.287l0.35-0.303
		l0.336-0.32l0.322-0.34l0.304-0.349l0.288-0.362l0.271-0.379l0.25-0.396l0.234-0.404l0.215-0.417l0.192-0.427l0.175-0.439
		l0.15-0.445l0.133-0.457l0.108-0.469l0.084-0.475l0.062-0.482l0.037-0.492l0.013-0.494l-0.013-0.5l-0.037-0.493l-0.062-0.481
		l-0.084-0.476l-0.108-0.473l-0.133-0.457l-0.15-0.45l-0.175-0.441l-0.192-0.425l-0.215-0.421l-0.234-0.404l-0.25-0.392
		l-0.271-0.379l-0.288-0.366l-0.304-0.354l-0.322-0.333l-0.336-0.321l-0.35-0.304l-0.367-0.288l-0.378-0.271l-0.391-0.251
		l-0.404-0.232L97.07,8.798l-0.425-0.191l-0.441-0.175l-0.45-0.15l-0.458-0.133L94.825,8.04l-0.476-0.082l-0.482-0.063l-0.492-0.036
		l-0.5-0.013l-0.496,0.013l-0.493,0.036l-0.482,0.063L90.929,8.04l-0.467,0.109l-0.458,0.133l-0.446,0.15l-0.441,0.175l-0.425,0.191
		l-0.416,0.217l-0.409,0.232l-0.392,0.251l-0.38,0.271l-0.362,0.288l-0.35,0.304l-0.337,0.321l-0.321,0.333l-0.304,0.354
		l-0.287,0.366l-0.268,0.379l-0.254,0.392L84.38,12.91l-0.213,0.421l-0.192,0.425l-0.174,0.441l-0.154,0.45l-0.129,0.457
		l-0.108,0.473l-0.083,0.476l-0.062,0.481l-0.038,0.493L83.215,17.527L83.215,17.527z M83.999,17.527l0.012-0.455l0.034-0.451
		l0.058-0.443l0.079-0.438l0.096-0.43l0.121-0.42l0.142-0.412l0.158-0.4l0.18-0.396l0.195-0.383l0.212-0.371l0.233-0.358l0.247-0.35
		l0.267-0.333l0.279-0.325l0.291-0.309l0.309-0.292l0.325-0.278l0.333-0.267l0.35-0.246l0.359-0.232l0.37-0.213l0.383-0.196
		l0.396-0.18l0.4-0.157L90.24,9.05l0.422-0.118l0.429-0.1l0.438-0.078l0.445-0.059l0.45-0.033l0.455-0.013l0.458,0.013l0.45,0.033
		l0.445,0.059l0.438,0.078l0.43,0.1l0.425,0.118l0.412,0.142l0.4,0.157l0.395,0.18l0.384,0.196l0.371,0.213l0.358,0.232l0.35,0.246
		l0.333,0.267l0.325,0.278l0.309,0.292l0.292,0.309l0.278,0.325l0.263,0.333l0.245,0.35l0.233,0.358l0.213,0.371l0.196,0.383
		l0.178,0.396l0.158,0.4l0.139,0.412l0.121,0.42l0.096,0.43l0.079,0.438l0.058,0.443l0.033,0.451l0.013,0.455l-0.013,0.453
		l-0.033,0.449l-0.058,0.446l-0.079,0.437l-0.101,0.431l-0.116,0.419l-0.142,0.414l-0.158,0.398l-0.179,0.396l-0.195,0.383
		l-0.213,0.371l-0.233,0.357l-0.245,0.352l-0.268,0.331l-0.279,0.327l-0.295,0.309l-0.308,0.29l-0.326,0.28l-0.333,0.266
		l-0.35,0.245l-0.358,0.233l-0.371,0.213l-0.383,0.195l-0.396,0.182l-0.398,0.156l-0.414,0.143l-0.42,0.121l-0.429,0.096
		l-0.438,0.08l-0.445,0.059l-0.45,0.031l-0.454,0.014l-0.455-0.014l-0.45-0.031l-0.445-0.059l-0.438-0.08l-0.429-0.096l-0.422-0.121
		l-0.412-0.143l-0.399-0.156l-0.396-0.182l-0.383-0.195l-0.37-0.213l-0.359-0.233l-0.35-0.245l-0.333-0.266l-0.325-0.28l-0.307-0.29
		l-0.291-0.308l-0.279-0.327l-0.267-0.331l-0.247-0.353l-0.233-0.356l-0.212-0.371l-0.195-0.383l-0.18-0.396l-0.158-0.399
		l-0.142-0.414l-0.121-0.419l-0.096-0.43l-0.079-0.438l-0.058-0.445l-0.034-0.449L83.999,17.527L83.999,17.527z"/>
	<polygon fill="#FFFFFF" points="58.473,23.557 58.473,21.402 60.166,21.402 60.166,8.601 58.473,8.601 58.473,6.446 70.3,6.446 
		70.3,11.037 68.145,11.037 68.145,8.857 63.065,8.857 63.065,13.654 68.401,13.654 68.401,16.041 63.065,16.041 63.065,21.146 
		68.145,21.146 68.145,18.837 70.3,18.837 70.3,23.557 	"/>
	<polygon fill="#FFFFFF" points="81.381,13.654 78.406,23.557 75.02,23.557 72.12,13.654 70.658,13.654 70.658,11.499 
		76.404,11.499 76.404,13.654 74.994,13.654 76.764,20.301 79.098,11.499 82.818,11.499 82.818,13.654 	"/>
	<path fill="#FFFFFF" d="M111.421,13.988c-0.394,0-0.773,0.06-1.142,0.18c-0.367,0.12-0.706,0.273-1.013,0.462
		c-0.307,0.188-0.585,0.393-0.834,0.616c-0.248,0.222-0.457,0.443-0.627,0.666v5.49h2.385v2.154h-6.849v-2.154h1.693v-7.749h-1.693
		v-2.155h4.464v1.821c0.324-0.58,0.769-1.072,1.333-1.474c0.564-0.403,1.325-0.604,2.284-0.604L111.421,13.988L111.421,13.988z"/>
	<path fill="#FFFFFF" d="M122.837,13.654l-2.924,8.927c-0.291,0.892-0.603,1.703-0.937,2.438c-0.333,0.734-0.744,1.377-1.232,1.924
		c-0.487,0.547-1.09,0.99-1.808,1.336c-0.719,0.34-1.599,0.564-2.643,0.664l-0.359-2.103c0.975-0.171,1.767-0.519,2.374-1.038
		c0.607-0.521,1.048-1.193,1.322-2.015l0.281-0.847l-3.36-9.288h-1.358v-2.155h5.617v2.155h-1.308l1.846,5.67l2.233-7.825h3.565
		v2.155H122.837L122.837,13.654z"/>
	<polygon fill="#FFFFFF" points="142.691,13.654 140.076,23.557 136.717,23.557 134.611,15.988 132.227,23.557 128.893,23.557 
		126.352,13.654 124.916,13.654 124.916,11.499 130.635,11.499 130.635,13.654 129.249,13.654 130.712,20.094 133.328,11.499 
		137.92,11.499 137.92,13.654 136.613,13.654 138.355,20.119 140.307,11.499 144.053,11.499 144.053,13.654 	"/>
	<path fill="#FFFFFF" d="M151.619,17.939h-1.641c-0.719,0-1.271,0.158-1.656,0.473c-0.385,0.318-0.576,0.8-0.576,1.449
		c0,0.617,0.145,1.061,0.438,1.336c0.291,0.273,0.658,0.41,1.103,0.41c0.495,0,0.94-0.129,1.335-0.387
		c0.393-0.256,0.727-0.496,0.999-0.718L151.619,17.939L151.619,17.939z M156.083,23.43c-0.153,0.086-0.41,0.17-0.771,0.256
		c-0.358,0.086-0.76,0.129-1.205,0.129c-1.162,0-1.881-0.487-2.154-1.463c-0.393,0.394-0.857,0.735-1.398,1.026
		c-0.539,0.29-1.227,0.437-2.064,0.437c-0.444,0-0.889-0.062-1.334-0.182c-0.444-0.117-0.838-0.312-1.18-0.59
		c-0.342-0.273-0.619-0.641-0.834-1.104c-0.213-0.461-0.32-1.033-0.32-1.717c0-0.754,0.129-1.387,0.386-1.898
		c0.256-0.514,0.61-0.928,1.063-1.245s0.979-0.543,1.578-0.681c0.598-0.137,1.229-0.203,1.897-0.203h1.872v-0.592
		c0-0.702-0.137-1.202-0.41-1.5c-0.273-0.3-0.734-0.449-1.387-0.449c-0.479,0-0.893,0.043-1.242,0.128
		c-0.352,0.086-0.604,0.146-0.758,0.18v1.539h-2.153v-3.334c0.495-0.171,1.146-0.369,1.948-0.591
		c0.805-0.222,1.719-0.334,2.746-0.334c1.438,0,2.466,0.36,3.091,1.078c0.624,0.719,0.937,1.728,0.937,3.028v5.384
		c0,0.498,0.223,0.746,0.666,0.746c0.225,0,0.416-0.025,0.578-0.076c0.162-0.053,0.312-0.104,0.448-0.155V23.43L156.083,23.43z"/>
	<path fill="#FFFFFF" d="M164.934,13.988c-0.394,0-0.772,0.06-1.142,0.18s-0.705,0.273-1.013,0.462
		c-0.311,0.188-0.586,0.393-0.836,0.616c-0.248,0.222-0.457,0.443-0.627,0.666v5.49h2.386v2.154h-6.851v-2.154h1.694v-7.749h-1.694
		v-2.155h4.465v1.821c0.324-0.58,0.771-1.072,1.332-1.474c0.565-0.403,1.328-0.604,2.285-0.604V13.988L164.934,13.988z"/>
	<path fill="#FFFFFF" d="M172.501,16.709c0-0.941-0.146-1.732-0.435-2.375c-0.293-0.641-0.779-0.962-1.463-0.962
		c-0.703,0-1.211,0.273-1.527,0.821c-0.314,0.548-0.508,1.386-0.575,2.516H172.501L172.501,16.709z M168.501,18.604
		c0.067,0.91,0.315,1.608,0.742,2.105c0.428,0.496,0.991,0.743,1.694,0.743c0.699,0,1.332-0.142,1.896-0.425
		c0.564-0.28,1.043-0.543,1.438-0.78l1,1.896c-0.172,0.139-0.385,0.299-0.643,0.488c-0.257,0.188-0.562,0.368-0.923,0.538
		c-0.358,0.171-0.774,0.321-1.244,0.451c-0.472,0.127-1.005,0.192-1.603,0.192c-0.719,0-1.398-0.104-2.041-0.311
		c-0.641-0.204-1.205-0.553-1.691-1.039c-0.488-0.486-0.874-1.128-1.154-1.925c-0.283-0.794-0.424-1.781-0.424-2.961
		c0-1.063,0.124-1.989,0.372-2.784c0.247-0.796,0.599-1.454,1.052-1.975c0.453-0.522,0.986-0.916,1.604-1.181
		c0.615-0.266,1.291-0.398,2.027-0.398c1.641,0,2.858,0.595,3.654,1.784c0.795,1.188,1.193,3.047,1.193,5.579h-6.95V18.604z"/>
	<path fill="#FFFFFF" d="M196.051,22.633c-0.205,0.104-0.453,0.219-0.742,0.346c-0.293,0.131-0.639,0.258-1.041,0.387
		c-0.4,0.129-0.867,0.234-1.397,0.32c-0.528,0.086-1.138,0.129-1.819,0.129c-0.839,0-1.66-0.143-2.463-0.424
		c-0.805-0.281-1.52-0.766-2.143-1.449c-0.625-0.685-1.127-1.592-1.502-2.719c-0.377-1.131-0.564-2.531-0.564-4.208
		c0-1.557,0.188-2.891,0.564-4.001c0.375-1.112,0.886-2.027,1.527-2.745c0.641-0.719,1.381-1.245,2.219-1.578s1.719-0.5,2.642-0.5
		c0.649,0,1.228,0.038,1.731,0.114c0.506,0.078,0.949,0.168,1.334,0.271c0.385,0.104,0.709,0.214,0.975,0.334
		c0.266,0.119,0.49,0.214,0.68,0.282v3.847h-2.154V9.036c-0.188-0.067-0.479-0.153-0.871-0.257
		c-0.394-0.102-0.914-0.153-1.564-0.153c-0.496,0-0.986,0.116-1.475,0.347c-0.486,0.231-0.92,0.604-1.297,1.116
		c-0.375,0.512-0.68,1.176-0.91,1.987c-0.229,0.813-0.346,1.792-0.346,2.938c0,1.181,0.105,2.177,0.318,2.989
		c0.215,0.813,0.501,1.463,0.859,1.95c0.359,0.488,0.771,0.838,1.232,1.05c0.461,0.214,0.939,0.321,1.436,0.321
		c0.686,0,1.258-0.067,1.72-0.203c0.462-0.139,0.763-0.24,0.897-0.311v-1.975h2.154V22.633L196.051,22.633z"/>
	<path fill="#FFFFFF" d="M203.08,23.43c-0.172,0.067-0.428,0.148-0.77,0.242c-0.342,0.096-0.736,0.143-1.182,0.143
		c-0.785,0-1.396-0.219-1.834-0.653c-0.436-0.437-0.654-1.106-0.654-2.015V7.832h-1.693V5.676h4.466v15.058
		c0,0.498,0.224,0.744,0.666,0.744c0.222,0,0.411-0.024,0.563-0.076c0.154-0.051,0.299-0.102,0.438-0.154V23.43L203.08,23.43z"/>
	<path fill="#FFFFFF" d="M212.699,17.529c0-0.735-0.066-1.355-0.205-1.861c-0.137-0.504-0.32-0.916-0.551-1.23
		c-0.23-0.317-0.504-0.544-0.821-0.681c-0.315-0.137-0.663-0.205-1.039-0.205c-0.358,0-0.7,0.068-1.024,0.205
		c-0.326,0.137-0.604,0.359-0.836,0.666c-0.23,0.309-0.414,0.72-0.551,1.233c-0.137,0.514-0.205,1.138-0.205,1.873
		c0,0.718,0.068,1.33,0.205,1.832c0.137,0.506,0.318,0.916,0.551,1.232c0.23,0.315,0.506,0.543,0.822,0.678
		c0.314,0.139,0.662,0.207,1.038,0.207c0.358,0,0.702-0.065,1.026-0.192c0.324-0.128,0.604-0.347,0.834-0.651
		c0.229-0.311,0.414-0.716,0.551-1.222C212.633,18.909,212.699,18.279,212.699,17.529L212.699,17.529z M215.6,17.529
		c0,1.111-0.142,2.059-0.424,2.847c-0.281,0.786-0.677,1.437-1.181,1.95c-0.505,0.513-1.091,0.889-1.757,1.127
		c-0.668,0.24-1.387,0.361-2.155,0.361c-0.785,0-1.513-0.121-2.181-0.361c-0.666-0.238-1.248-0.614-1.744-1.127
		c-0.497-0.514-0.887-1.168-1.166-1.965c-0.284-0.793-0.424-1.738-0.424-2.832c0-1.098,0.14-2.041,0.424-2.836
		c0.279-0.795,0.664-1.45,1.152-1.963c0.487-0.513,1.068-0.89,1.746-1.128c0.674-0.24,1.406-0.36,2.191-0.36
		c0.77,0,1.492,0.12,2.168,0.36c0.676,0.238,1.262,0.615,1.757,1.128c0.496,0.513,0.886,1.168,1.169,1.963
		C215.458,15.489,215.6,16.434,215.6,17.529L215.6,17.529z"/>
	<path fill="#FFFFFF" d="M229.912,23.43c-0.17,0.067-0.428,0.148-0.77,0.242c-0.342,0.096-0.733,0.143-1.18,0.143
		c-1.283,0-2.027-0.607-2.232-1.821c-0.479,0.514-1.033,0.944-1.666,1.295s-1.36,0.526-2.183,0.526
		c-0.922,0-1.672-0.279-2.243-0.836c-0.572-0.557-0.859-1.465-0.859-2.729v-6.594h-1.693V11.5h4.465v8.158
		c0,0.529,0.086,0.938,0.256,1.22c0.172,0.281,0.487,0.423,0.949,0.423c0.258,0,0.514-0.047,0.77-0.142s0.504-0.207,0.744-0.335
		c0.238-0.127,0.461-0.27,0.668-0.422c0.203-0.153,0.385-0.299,0.537-0.438v-6.311h-1.693v-2.155h4.466v9.233
		c0,0.498,0.222,0.746,0.667,0.746c0.223,0,0.41-0.025,0.562-0.076c0.156-0.053,0.301-0.104,0.437-0.155L229.912,23.43
		L229.912,23.43z"/>
	<path fill="#FFFFFF" d="M238.66,14.578c-0.188-0.155-0.467-0.347-0.834-0.578c-0.367-0.23-0.814-0.346-1.346-0.346
		c-0.326,0-0.629,0.052-0.912,0.153c-0.281,0.104-0.528,0.296-0.742,0.578c-0.215,0.281-0.387,0.672-0.514,1.167
		c-0.129,0.495-0.191,1.127-0.191,1.896c0,0.855,0.055,1.544,0.165,2.066c0.112,0.521,0.262,0.924,0.448,1.205
		c0.188,0.28,0.412,0.477,0.668,0.577c0.257,0.103,0.529,0.153,0.82,0.153c0.547,0,1.026-0.141,1.438-0.426
		c0.409-0.279,0.743-0.541,0.999-0.779V14.578L238.66,14.578z M243.124,23.43c-0.171,0.086-0.431,0.17-0.782,0.256
		s-0.748,0.129-1.191,0.129c-1.164,0-1.883-0.487-2.155-1.463c-0.411,0.41-0.882,0.758-1.411,1.039s-1.197,0.424-2.001,0.424
		c-0.599,0-1.166-0.107-1.705-0.32c-0.54-0.215-1.006-0.573-1.397-1.079c-0.395-0.503-0.707-1.157-0.938-1.962
		c-0.23-0.803-0.348-1.797-0.348-2.975c0-1.197,0.143-2.199,0.425-3.002c0.282-0.805,0.646-1.445,1.091-1.925
		c0.443-0.479,0.939-0.816,1.486-1.012c0.548-0.197,1.078-0.297,1.591-0.297c0.786,0,1.399,0.12,1.834,0.36
		c0.437,0.238,0.784,0.479,1.039,0.718V7.832h-1.796V5.676h4.592v15.058c0,0.498,0.214,0.744,0.643,0.744
		c0.223,0,0.416-0.024,0.576-0.076c0.163-0.051,0.312-0.102,0.449-0.154L243.124,23.43L243.124,23.43z"/>
	<polygon fill="#FFFFFF" points="245.949,6.441 245.949,6.065 245.348,6.065 245.348,8.609 245.785,8.609 245.785,8.927 
		244.469,8.927 244.469,8.609 244.906,8.609 244.906,6.065 244.303,6.065 244.303,6.441 243.986,6.441 243.986,5.676 246.268,5.676 
		246.268,6.441 	"/>
	<polygon fill="#FFFFFF" points="248.852,8.927 248.852,8.609 249.217,8.609 249.217,6.51 248.387,8.927 248.07,8.927 247.242,6.51 
		247.242,8.609 247.607,8.609 247.607,8.927 246.463,8.927 246.463,8.609 246.805,8.609 246.805,5.993 246.463,5.993 246.463,5.676 
		247.402,5.676 248.23,8.123 249.057,5.676 249.996,5.676 249.996,5.993 249.654,5.993 249.654,8.609 249.996,8.609 249.996,8.927 	
		"/>
</g>
</svg>
