<?xml version="1.0" encoding="utf-8"?>
<!-- Generator: Adobe Illustrator 15.0.2, SVG Export Plug-In . SVG Version: 6.00 Build 0)  -->
<!DOCTYPE svg PUBLIC "-//W3C//DTD SVG 1.1//EN" "http://www.w3.org/Graphics/SVG/1.1/DTD/svg11.dtd">
<svg version="1.1" id="Layer_1" xmlns="http://www.w3.org/2000/svg" xmlns:xlink="http://www.w3.org/1999/xlink" x="0px" y="0px"
	 width="180px" height="51px" viewBox="0 0 180 51" enable-background="new 0 0 180 51" xml:space="preserve">
<g>
	<polygon fill="#E6E3DE" points="91.935,10.144 93.677,8.401 91.935,6.658 79.108,6.658 77.364,8.401 79.108,10.144 	"/>
	<polygon fill="#E6E3DE" points="78.714,23.365 78.714,10.538 76.971,8.795 75.229,10.538 75.229,23.365 76.971,25.107 	"/>
	<polygon fill="#E6E3DE" points="91.935,23.762 79.108,23.762 77.364,25.502 79.108,27.245 91.935,27.245 93.677,25.502 	"/>
	<polygon fill="#E6E3DE" points="92.328,10.538 92.328,23.365 94.072,25.107 95.813,23.365 95.813,10.538 94.072,8.795 	"/>
	<polygon fill="#E6E3DE" points="94.072,25.898 92.328,27.639 92.328,40.467 94.072,42.211 95.813,40.467 95.813,27.64 	"/>
	<polygon fill="#E6E3DE" points="91.935,40.861 79.108,40.861 77.364,42.604 79.108,44.348 91.935,44.348 93.677,42.604 	"/>
	<polygon fill="#E6E3DE" points="78.714,40.467 78.714,27.639 76.971,25.898 75.229,27.64 75.229,40.467 76.971,42.211 	"/>
	<polygon fill="#E6E3DE" points="116.006,10.144 117.749,8.401 116.006,6.658 103.179,6.658 101.437,8.401 103.179,10.144 	"/>
	<polygon fill="#E6E3DE" points="102.786,23.365 102.786,10.538 101.042,8.795 99.299,10.538 99.299,23.365 101.042,25.107 	"/>
	<polygon fill="#E6E3DE" points="116.006,23.762 103.179,23.762 101.437,25.502 103.179,27.245 116.006,27.245 117.749,25.502 	"/>
	<polygon fill="#4F4F4F" points="116.401,10.538 116.401,23.365 118.143,25.107 119.886,23.365 119.886,10.538 118.143,8.795 	"/>
	<polygon fill="#4F4F4F" points="118.143,25.898 116.401,27.639 116.401,40.467 118.143,42.211 119.886,40.467 119.886,27.64 	"/>
	<polygon fill="#E6E3DE" points="116.006,40.861 103.179,40.861 101.437,42.604 103.179,44.348 116.006,44.348 117.749,42.604 	"/>
	<polygon fill="#E6E3DE" points="102.786,40.467 102.786,27.639 101.042,25.898 99.299,27.64 99.299,40.467 101.042,42.211 	"/>
	<path fill="#4F4F4F" d="M123.372,20.275h3.485v3.486h-3.485V20.275L123.372,20.275z M123.372,27.245h3.485v3.485h-3.485V27.245
		L123.372,27.245z"/>
	<polygon fill="#4F4F4F" points="147.048,10.144 148.791,8.401 147.048,6.658 134.221,6.658 132.479,8.401 134.221,10.144 	"/>
	<polygon fill="#4F4F4F" points="133.826,23.365 133.826,10.538 132.085,8.795 130.34,10.538 130.34,23.365 132.085,25.107 	"/>
	<polygon fill="#4F4F4F" points="147.048,23.762 134.221,23.762 132.479,25.502 134.221,27.245 147.048,27.245 148.791,25.502 	"/>
	<polygon fill="#E6E3DE" points="147.443,10.538 147.443,23.365 149.185,25.107 150.928,23.365 150.928,10.538 149.185,8.795 	"/>
	<polygon fill="#4F4F4F" points="149.185,25.898 147.443,27.639 147.443,40.467 149.185,42.211 150.928,40.467 150.928,27.64 	"/>
	<polygon fill="#4F4F4F" points="147.048,40.861 134.221,40.861 132.479,42.604 134.221,44.348 147.048,44.348 148.791,42.604 	"/>
	<polygon fill="#E6E3DE" points="133.826,40.467 133.826,27.639 132.085,25.898 130.34,27.64 130.34,40.467 132.085,42.211 	"/>
	<polygon fill="#4F4F4F" points="171.12,10.144 172.862,8.401 171.12,6.658 158.293,6.658 156.55,8.401 158.293,10.144 	"/>
	<polygon fill="#4F4F4F" points="157.899,23.365 157.899,10.538 156.157,8.795 154.413,10.538 154.413,23.365 156.157,25.107 	"/>
	<polygon fill="#4F4F4F" points="171.12,23.762 158.293,23.762 156.55,25.502 158.293,27.245 171.12,27.245 172.862,25.502 	"/>
	<polygon fill="#4F4F4F" points="171.515,10.538 171.515,23.365 173.257,25.107 175,23.365 175,10.538 173.257,8.795 	"/>
	<polygon fill="#4F4F4F" points="173.257,25.898 171.515,27.639 171.515,40.467 173.257,42.211 175,40.467 175,27.64 	"/>
	<polygon fill="#4F4F4F" points="171.12,40.861 158.293,40.861 156.55,42.604 158.293,44.348 171.12,44.348 172.862,42.604 	"/>
	<polygon fill="#E6E3DE" points="157.899,40.467 157.899,27.639 156.157,25.898 154.413,27.64 154.413,40.467 156.157,42.211 	"/>
	<g>
		<path fill="#020202" d="M16.365,34.258c-0.127,0.16-0.1,0.395,0.061,0.521c0.069,0.055,0.149,0.08,0.23,0.08
			c0.11,0,0.219-0.048,0.293-0.141l5.412-6.852c-0.215-0.127-0.413-0.279-0.587-0.456L16.365,34.258z"/>
		<path fill="#020202" d="M23.786,11.49c0.527,0,0.955-0.427,0.955-0.955V7.606c0-0.527-0.428-0.955-0.955-0.955
			c-0.528,0-0.955,0.428-0.955,0.955v2.929C22.831,11.063,23.258,11.49,23.786,11.49z"/>
		<path fill="#020202" d="M33.643,15.572c0.188,0.187,0.432,0.281,0.676,0.281s0.489-0.093,0.675-0.278l2.074-2.069
			c0.373-0.373,0.375-0.978,0.002-1.35c-0.373-0.374-0.978-0.375-1.351-0.003l-2.074,2.069
			C33.271,14.595,33.271,15.199,33.643,15.572z"/>
		<path fill="#020202" d="M41.618,24.482l-2.933-0.005c0,0-0.001,0-0.001,0c-0.527,0-0.955,0.427-0.955,0.954
			c-0.001,0.528,0.426,0.956,0.954,0.956l2.933,0.006c0,0,0,0,0.001,0c0.527,0,0.955-0.427,0.955-0.955
			C42.572,24.911,42.145,24.483,41.618,24.482z"/>
		<path fill="#020202" d="M37.068,38.721c0.373-0.373,0.374-0.977,0.001-1.351l-2.074-2.078c-0.373-0.374-0.977-0.374-1.351-0.001
			c-0.374,0.371-0.375,0.977-0.001,1.35l2.074,2.078C35.904,38.906,36.149,39,36.394,39S36.882,38.908,37.068,38.721z"/>
		<path fill="#020202" d="M24.741,43.267V40.33c0-0.527-0.428-0.956-0.955-0.956c-0.528,0-0.955,0.429-0.955,0.956v2.937
			c0,0.528,0.427,0.956,0.955,0.956C24.313,44.223,24.741,43.795,24.741,43.267z"/>
		<path fill="#020202" d="M11.178,39c0.245,0,0.49-0.094,0.676-0.281l2.074-2.078c0.372-0.373,0.372-0.979-0.001-1.35
			c-0.374-0.373-0.979-0.372-1.351,0.001l-2.074,2.078c-0.372,0.374-0.371,0.979,0.002,1.352C10.69,38.908,10.934,39,11.178,39z"/>
		<path fill="#020202" d="M9.843,25.431c-0.001-0.527-0.428-0.954-0.955-0.954c0,0,0,0-0.001,0l-2.932,0.005
			C5.427,24.483,5,24.911,5,25.438c0,0.527,0.428,0.954,0.955,0.954c0,0,0.001,0,0.001,0l2.932-0.005
			C9.417,26.388,9.844,25.959,9.843,25.431z"/>
		<path fill="#020202" d="M12.577,15.575c0.187,0.186,0.431,0.278,0.674,0.278c0.245,0,0.49-0.093,0.676-0.28
			c0.372-0.374,0.372-0.979-0.001-1.352l-2.074-2.068c-0.374-0.373-0.979-0.373-1.351,0.001c-0.372,0.373-0.372,0.977,0.002,1.351
			L12.577,15.575z"/>
		<path fill="#020202" d="M14.176,13.422c0.075,0.1,0.19,0.153,0.307,0.153c0.081,0,0.164-0.026,0.232-0.079
			c0.169-0.128,0.202-0.371,0.074-0.54l-0.916-1.205c-0.129-0.169-0.371-0.203-0.54-0.074c-0.169,0.129-0.202,0.371-0.073,0.541
			L14.176,13.422z"/>
		<path fill="#020202" d="M25.815,10.58c0.018,0.002,0.036,0.003,0.053,0.003c0.19,0,0.355-0.141,0.381-0.333l0.205-1.5
			c0.029-0.211-0.119-0.406-0.33-0.434c-0.212-0.029-0.406,0.119-0.434,0.33l-0.205,1.5C25.457,10.356,25.604,10.551,25.815,10.58z"
			/>
		<path fill="#020202" d="M37.006,14.911l-1.205,0.917c-0.17,0.128-0.203,0.37-0.074,0.54c0.076,0.099,0.191,0.152,0.307,0.152
			c0.082,0,0.164-0.025,0.233-0.078l1.206-0.917c0.168-0.129,0.201-0.371,0.073-0.54C37.417,14.814,37.175,14.782,37.006,14.911z"/>
		<path fill="#020202" d="M40.577,27.342l-1.5-0.205c-0.213-0.029-0.405,0.119-0.434,0.33s0.119,0.406,0.33,0.434l1.501,0.205
			c0.017,0.003,0.035,0.004,0.052,0.004c0.19,0,0.355-0.141,0.382-0.334C40.936,27.565,40.787,27.371,40.577,27.342z"/>
		<path fill="#020202" d="M34.005,39.275c0.081,0,0.163-0.025,0.232-0.078c0.169-0.129,0.203-0.371,0.074-0.54l-0.916-1.206
			c-0.129-0.17-0.37-0.203-0.54-0.074s-0.203,0.371-0.075,0.541l0.917,1.206C33.773,39.223,33.889,39.275,34.005,39.275z"/>
		<path fill="#020202" d="M21.5,42.562c0.189,0,0.354-0.14,0.381-0.332l0.206-1.501c0.029-0.211-0.119-0.406-0.33-0.434
			c-0.212-0.029-0.406,0.119-0.435,0.328l-0.205,1.501c-0.029,0.212,0.118,0.405,0.329,0.434
			C21.464,42.561,21.481,42.562,21.5,42.562z"/>
		<path fill="#020202" d="M11.771,35.048c0.169-0.13,0.202-0.37,0.073-0.541c-0.128-0.169-0.37-0.202-0.54-0.073L10.1,35.35
			c-0.169,0.129-0.203,0.371-0.074,0.54c0.076,0.1,0.19,0.152,0.307,0.152c0.081,0,0.164-0.026,0.233-0.078L11.771,35.048z"/>
		<path fill="#020202" d="M6.995,23.532l1.5,0.206c0.018,0.002,0.035,0.003,0.053,0.003c0.189,0,0.355-0.141,0.381-0.333
			c0.029-0.21-0.119-0.405-0.33-0.434l-1.5-0.204c-0.212-0.03-0.405,0.119-0.435,0.329C6.636,23.309,6.784,23.503,6.995,23.532z"/>
		<path fill="#020202" d="M15.762,12.31c0.071,0.124,0.201,0.192,0.334,0.192c0.065,0,0.131-0.016,0.192-0.052
			c0.185-0.106,0.248-0.342,0.141-0.526l-0.757-1.311c-0.106-0.185-0.342-0.248-0.526-0.141c-0.185,0.106-0.248,0.342-0.141,0.525
			L15.762,12.31z"/>
		<path fill="#020202" d="M27.667,10.953c0.034,0.009,0.067,0.014,0.101,0.014c0.169,0,0.326-0.114,0.371-0.286l0.392-1.461
			c0.056-0.206-0.066-0.417-0.272-0.472c-0.206-0.055-0.417,0.067-0.472,0.272l-0.392,1.461
			C27.339,10.687,27.461,10.897,27.667,10.953z"/>
		<path fill="#020202" d="M36.771,17.94c0.072,0.124,0.201,0.192,0.335,0.192c0.065,0,0.131-0.016,0.192-0.052l1.312-0.757
			c0.184-0.106,0.247-0.342,0.141-0.527c-0.106-0.184-0.342-0.247-0.526-0.141l-1.311,0.757
			C36.729,17.52,36.666,17.755,36.771,17.94z"/>
		<path fill="#020202" d="M40.204,29.438l-1.463-0.393c-0.206-0.055-0.417,0.067-0.471,0.272c-0.056,0.206,0.066,0.417,0.271,0.473
			l1.463,0.392c0.034,0.01,0.067,0.014,0.101,0.014c0.17,0,0.326-0.113,0.372-0.285C40.532,29.704,40.41,29.492,40.204,29.438z"/>
		<path fill="#020202" d="M32.234,40.453c0.065,0,0.131-0.016,0.192-0.051c0.185-0.107,0.248-0.343,0.141-0.526l-0.758-1.312
			c-0.106-0.185-0.342-0.248-0.526-0.143c-0.184,0.107-0.247,0.344-0.141,0.527l0.757,1.313
			C31.971,40.385,32.101,40.453,32.234,40.453z"/>
		<path fill="#020202" d="M19.413,42.141c0.17,0,0.326-0.113,0.372-0.284l0.393-1.464c0.055-0.205-0.067-0.416-0.273-0.471
			c-0.206-0.056-0.417,0.066-0.472,0.271l-0.392,1.462c-0.056,0.206,0.066,0.418,0.271,0.473
			C19.347,42.138,19.38,42.141,19.413,42.141z"/>
		<path fill="#020202" d="M10.799,32.934c-0.106-0.183-0.342-0.246-0.526-0.141l-1.311,0.758c-0.185,0.106-0.248,0.342-0.141,0.527
			c0.071,0.123,0.201,0.192,0.333,0.192c0.065,0,0.131-0.017,0.193-0.052l1.311-0.758C10.843,33.355,10.906,33.119,10.799,32.934z"
			/>
		<path fill="#020202" d="M7.368,21.437l1.462,0.393c0.034,0.009,0.067,0.013,0.1,0.013c0.17,0,0.327-0.113,0.372-0.285
			c0.055-0.206-0.066-0.417-0.272-0.472l-1.462-0.392c-0.207-0.055-0.417,0.067-0.472,0.272S7.162,21.381,7.368,21.437z"/>
		<path fill="#020202" d="M31.283,12.45c0.061,0.035,0.127,0.052,0.193,0.052c0.132,0,0.263-0.069,0.334-0.193l0.757-1.311
			c0.107-0.184,0.043-0.42-0.141-0.526c-0.184-0.107-0.419-0.044-0.526,0.141l-0.756,1.311
			C31.036,12.108,31.099,12.344,31.283,12.45z"/>
		<path fill="#020202" d="M38.271,21.556c0.046,0.172,0.202,0.286,0.372,0.286c0.033,0,0.067-0.004,0.101-0.014l1.462-0.391
			c0.206-0.055,0.327-0.267,0.272-0.472c-0.055-0.206-0.267-0.326-0.472-0.272l-1.461,0.392
			C38.338,21.139,38.215,21.35,38.271,21.556z"/>
		<path fill="#020202" d="M38.61,33.551l-1.312-0.758c-0.184-0.105-0.42-0.043-0.527,0.142c-0.106,0.185-0.042,0.421,0.142,0.526
			l1.312,0.757c0.061,0.034,0.126,0.052,0.192,0.052c0.133,0,0.263-0.069,0.334-0.193C38.857,33.893,38.794,33.657,38.61,33.551z"/>
		<path fill="#020202" d="M28.158,42.141c0.033,0,0.066-0.003,0.1-0.013c0.206-0.056,0.328-0.267,0.272-0.473l-0.392-1.461
			c-0.055-0.206-0.266-0.328-0.472-0.272c-0.206,0.055-0.328,0.266-0.272,0.471l0.392,1.464
			C27.832,42.027,27.988,42.141,28.158,42.141z"/>
		<path fill="#020202" d="M15.762,38.564l-0.757,1.312c-0.106,0.185-0.043,0.42,0.141,0.526c0.061,0.035,0.127,0.052,0.193,0.052
			c0.132,0,0.262-0.069,0.333-0.192l0.757-1.313c0.106-0.184,0.042-0.42-0.142-0.526S15.867,38.381,15.762,38.564z"/>
		<path fill="#020202" d="M9.302,29.317c-0.055-0.206-0.267-0.327-0.472-0.271l-1.462,0.392c-0.206,0.055-0.328,0.268-0.272,0.473
			c0.045,0.172,0.202,0.285,0.372,0.285c0.033,0,0.066-0.004,0.1-0.014l1.462-0.392C9.235,29.734,9.357,29.523,9.302,29.317z"/>
		<path fill="#020202" d="M8.962,17.323l1.311,0.757c0.061,0.036,0.127,0.052,0.192,0.052c0.133,0,0.263-0.069,0.334-0.193
			c0.106-0.185,0.043-0.42-0.141-0.527l-1.311-0.757c-0.185-0.106-0.42-0.043-0.526,0.141C8.714,16.981,8.777,17.217,8.962,17.323z"
			/>
		<path fill="#020202" d="M19.433,10.68c0.046,0.172,0.202,0.286,0.372,0.286c0.033,0,0.067-0.005,0.101-0.014
			c0.206-0.055,0.328-0.267,0.272-0.472l-0.392-1.462c-0.055-0.206-0.266-0.327-0.473-0.272c-0.206,0.055-0.327,0.267-0.271,0.472
			L19.433,10.68z"/>
		<path fill="#020202" d="M21.151,10.278c0.028,0.192,0.192,0.329,0.381,0.329c0.019,0,0.038-0.001,0.057-0.004
			c0.21-0.032,0.356-0.228,0.325-0.438l-0.221-1.498c-0.032-0.21-0.228-0.354-0.438-0.324c-0.21,0.03-0.356,0.226-0.325,0.437
			L21.151,10.278z"/>
		<path fill="#020202" d="M32.721,13.395c0.069,0.051,0.149,0.076,0.23,0.076c0.118,0,0.234-0.054,0.309-0.156l0.903-1.215
			c0.126-0.171,0.091-0.413-0.08-0.54c-0.171-0.126-0.413-0.091-0.539,0.08l-0.902,1.215C32.515,13.026,32.55,13.268,32.721,13.395z
			"/>
		<path fill="#020202" d="M38.944,22.803c-0.21,0.032-0.356,0.228-0.325,0.438c0.028,0.191,0.193,0.329,0.381,0.329
			c0.018,0,0.038-0.002,0.057-0.005l1.497-0.222c0.21-0.031,0.356-0.228,0.325-0.438c-0.031-0.21-0.228-0.357-0.438-0.324
			L38.944,22.803z"/>
		<path fill="#020202" d="M37.663,35.734c0.126-0.17,0.092-0.412-0.08-0.539l-1.215-0.902c-0.17-0.127-0.412-0.091-0.54,0.08
			c-0.126,0.17-0.091,0.412,0.08,0.539l1.216,0.902c0.07,0.051,0.15,0.076,0.229,0.076C37.471,35.891,37.587,35.836,37.663,35.734z"
			/>
		<path fill="#020202" d="M26.42,40.596c-0.031-0.211-0.229-0.357-0.438-0.326c-0.21,0.032-0.356,0.229-0.325,0.438l0.222,1.499
			c0.028,0.192,0.193,0.329,0.38,0.329c0.019,0,0.038-0.002,0.058-0.004c0.21-0.031,0.356-0.228,0.325-0.438L26.42,40.596z"/>
		<path fill="#020202" d="M14.311,37.561l-0.903,1.214c-0.126,0.171-0.091,0.413,0.08,0.539c0.069,0.052,0.149,0.076,0.23,0.076
			c0.118,0,0.234-0.054,0.309-0.155l0.903-1.216c0.127-0.171,0.091-0.412-0.08-0.54C14.68,37.353,14.438,37.389,14.311,37.561z"/>
		<path fill="#020202" d="M8.628,28.071c0.21-0.03,0.356-0.228,0.325-0.438s-0.228-0.354-0.438-0.325l-1.498,0.223
			c-0.21,0.03-0.356,0.226-0.325,0.438c0.028,0.19,0.193,0.329,0.381,0.329c0.019,0,0.038-0.002,0.057-0.005L8.628,28.071z"/>
		<path fill="#020202" d="M9.989,15.679l1.216,0.902c0.069,0.051,0.149,0.076,0.229,0.076c0.118,0,0.234-0.053,0.31-0.155
			c0.126-0.171,0.091-0.413-0.08-0.54l-1.216-0.902c-0.17-0.127-0.413-0.091-0.539,0.081C9.782,15.312,9.817,15.553,9.989,15.679z"
			/>
		<path fill="#020202" d="M17.612,11.345c0.062,0.149,0.206,0.239,0.357,0.239c0.048,0,0.098-0.009,0.146-0.028
			c0.197-0.081,0.292-0.306,0.211-0.502l-0.572-1.402c-0.081-0.197-0.305-0.292-0.503-0.211c-0.197,0.081-0.292,0.306-0.211,0.503
			L17.612,11.345z"/>
		<path fill="#020202" d="M29.592,11.611c0.049,0.021,0.099,0.031,0.149,0.031c0.15,0,0.293-0.089,0.355-0.236l0.586-1.396
			c0.083-0.197-0.01-0.423-0.206-0.505c-0.196-0.082-0.422,0.01-0.505,0.206l-0.586,1.396
			C29.303,11.303,29.395,11.528,29.592,11.611z"/>
		<path fill="#020202" d="M37.667,19.766c0.062,0.149,0.206,0.24,0.357,0.24c0.049,0,0.098-0.009,0.146-0.029l1.402-0.572
			c0.197-0.08,0.292-0.305,0.211-0.502c-0.081-0.197-0.305-0.292-0.503-0.211l-1.401,0.573
			C37.681,19.344,37.586,19.569,37.667,19.766z"/>
		<path fill="#020202" d="M39.512,31.623l-1.396-0.586c-0.197-0.082-0.422,0.01-0.504,0.206c-0.083,0.196,0.01,0.422,0.206,0.505
			l1.396,0.586c0.049,0.02,0.1,0.029,0.149,0.029c0.15,0,0.294-0.088,0.355-0.236C39.8,31.931,39.708,31.705,39.512,31.623z"/>
		<path fill="#020202" d="M30.175,41.462c0.049,0,0.099-0.009,0.146-0.028c0.197-0.08,0.292-0.306,0.211-0.502l-0.573-1.402
			c-0.081-0.197-0.306-0.292-0.503-0.211c-0.197,0.081-0.292,0.306-0.211,0.502l0.573,1.402
			C29.879,41.372,30.024,41.462,30.175,41.462z"/>
		<path fill="#020202" d="M17.476,39.469l-0.586,1.396c-0.083,0.196,0.009,0.423,0.206,0.505c0.049,0.021,0.1,0.03,0.149,0.03
			c0.151,0,0.294-0.089,0.355-0.235l0.586-1.396c0.083-0.196-0.01-0.422-0.206-0.506C17.784,39.18,17.558,39.271,17.476,39.469z"/>
		<path fill="#020202" d="M9.904,31.108c-0.08-0.196-0.305-0.292-0.502-0.212L8,31.47c-0.197,0.081-0.292,0.306-0.211,0.503
			c0.061,0.148,0.205,0.24,0.357,0.24c0.048,0,0.098-0.01,0.146-0.029l1.402-0.572C9.891,31.53,9.985,31.305,9.904,31.108z"/>
		<path fill="#020202" d="M8.06,19.251l1.396,0.587c0.049,0.02,0.099,0.03,0.149,0.03c0.15,0,0.293-0.088,0.355-0.236
			c0.082-0.196-0.01-0.422-0.206-0.505l-1.396-0.586c-0.196-0.082-0.422,0.01-0.504,0.206S7.863,19.169,8.06,19.251z"/>
		<path fill="#020202" d="M17.454,21.208l3.588,3.589c0.243-1.041,1.063-1.86,2.104-2.104l-3.588-3.588
			c-0.58-0.58-1.522-0.58-2.103,0C16.873,19.686,16.873,20.627,17.454,21.208z"/>
		<path fill="#020202" d="M26.291,24.146l5.477-5.778c0.353-0.372,0.337-0.961-0.036-1.314c-0.373-0.354-0.961-0.337-1.314,0.034
			l-5.477,5.779C25.522,23.129,25.999,23.582,26.291,24.146z"/>
		<path fill="#020202" d="M24.243,23.604c-0.075-0.018-0.151-0.032-0.229-0.043c-0.075-0.008-0.15-0.014-0.228-0.014
			c-1.044,0-1.891,0.846-1.891,1.89c0,0.077,0.006,0.153,0.015,0.228c0.046,0.385,0.207,0.732,0.446,1.01
			c0.164,0.188,0.363,0.343,0.588,0.455c0.253,0.127,0.538,0.199,0.841,0.199c1.044,0,1.891-0.848,1.891-1.891
			c0-0.193-0.029-0.38-0.083-0.555C25.399,24.252,24.886,23.764,24.243,23.604z M23.158,25.437c0-0.346,0.281-0.627,0.628-0.627
			s0.628,0.282,0.628,0.627c0,0.347-0.281,0.627-0.628,0.627h0c-0.283,0-0.518-0.188-0.597-0.444
			C23.17,25.562,23.158,25.501,23.158,25.437z"/>
	</g>
</g>
</svg>
