<?xml version="1.0" encoding="utf-8"?>
<!-- Generator: Adobe Illustrator 15.0.2, SVG Export Plug-In . SVG Version: 6.00 Build 0)  -->
<!DOCTYPE svg PUBLIC "-//W3C//DTD SVG 1.1//EN" "http://www.w3.org/Graphics/SVG/1.1/DTD/svg11.dtd">
<svg version="1.1" id="Layer_1" xmlns="http://www.w3.org/2000/svg" xmlns:xlink="http://www.w3.org/1999/xlink" x="0px" y="0px"
	 width="180px" height="51px" viewBox="0 0 180 51" enable-background="new 0 0 180 51" xml:space="preserve">
<g>
	<g>
		<path fill="#FFFFFF" d="M46.688,6.554c0.691,0,1.251,0.548,1.251,1.225v39.309c0,0.676-0.56,1.226-1.251,1.226H6.549
			c-0.691,0-1.251-0.55-1.251-1.226V7.779c0-0.677,0.56-1.225,1.251-1.225L46.688,6.554z"/>
		<path fill="#231F20" d="M46.688,48.61H6.549C5.695,48.61,5,47.926,5,47.088V7.779C5,6.94,5.695,6.257,6.549,6.257h40.139
			c0.854,0,1.548,0.683,1.548,1.522v39.309C48.235,47.926,47.542,48.61,46.688,48.61z M46.688,6.851H6.548
			c-0.526,0-0.954,0.416-0.954,0.928v39.309c0,0.512,0.428,0.928,0.954,0.928h40.139c0.526,0,0.954-0.416,0.954-0.928V7.779
			C47.642,7.267,47.213,6.851,46.688,6.851z"/>
	</g>
	<g>
		<circle fill="#FFFFFF" cx="26.465" cy="27.432" r="12.579"/>
		<path fill="#231F20" d="M26.465,40.308c-7.099,0-12.874-5.776-12.874-12.878c0-7.099,5.775-12.874,12.874-12.874
			c7.099,0,12.874,5.775,12.874,12.874C39.339,34.531,33.564,40.308,26.465,40.308z M26.465,15.15c-6.771,0-12.28,5.509-12.28,12.28
			c0,6.773,5.509,12.283,12.28,12.283c6.771,0,12.279-5.51,12.279-12.283C38.745,20.659,33.236,15.15,26.465,15.15z"/>
	</g>
	<g>
		<circle fill="#231F20" cx="26.465" cy="32.39" r="1.288"/>
		<path fill="#231F20" d="M26.465,33.975c-0.874,0-1.584-0.711-1.584-1.585c0-0.873,0.711-1.585,1.584-1.585
			s1.584,0.712,1.584,1.585C28.05,33.264,27.339,33.975,26.465,33.975z M26.465,31.399c-0.546,0-0.99,0.444-0.99,0.99
			s0.444,0.991,0.99,0.991s0.991-0.445,0.991-0.991S27.011,31.399,26.465,31.399z"/>
	</g>
	<g>
		<circle fill="#231F20" cx="26.465" cy="22.472" r="1.287"/>
		<path fill="#231F20" d="M26.465,24.057c-0.874,0-1.584-0.711-1.584-1.584s0.711-1.584,1.584-1.584s1.584,0.711,1.584,1.584
			S27.339,24.057,26.465,24.057z M26.465,21.482c-0.546,0-0.99,0.444-0.99,0.99c0,0.546,0.444,0.991,0.99,0.991
			s0.991-0.444,0.991-0.991C27.456,21.926,27.011,21.482,26.465,21.482z"/>
	</g>
	<g>
		<path fill="#FFFFFF" d="M75.708,22.479c0,0.714,0.643,1.294,1.431,1.294l7.286-0.007c0.395,0,0.716-0.289,0.716-0.646v-1.294
			c0-0.357-0.321-0.647-0.716-0.647l-7.286,0.006C76.351,21.185,75.708,21.765,75.708,22.479L75.708,22.479z"/>
		<path fill="#231F20" d="M77.14,24.069L77.14,24.069c-0.953,0-1.729-0.714-1.729-1.591s0.776-1.591,1.729-1.591l7.286-0.006
			c0.559,0,1.013,0.423,1.013,0.944v1.294c0,0.521-0.454,0.944-1.013,0.944L77.14,24.069z M84.426,21.476l-7.285,0.006
			c-0.626,0-1.134,0.447-1.134,0.997c0,0.55,0.508,0.997,1.133,0.997l7.286-0.007c0.23,0,0.419-0.157,0.419-0.35v-1.294
			C84.845,21.632,84.656,21.476,84.426,21.476z"/>
	</g>
	<g>
		<path fill="#FFFFFF" d="M75.708,32.393c0,0.715,0.643,1.295,1.431,1.295l7.286-0.008c0.395,0,0.716-0.289,0.716-0.646v-1.294
			c0-0.357-0.321-0.647-0.716-0.647l-7.286,0.006C76.351,31.098,75.708,31.679,75.708,32.393L75.708,32.393z"/>
		<path fill="#231F20" d="M77.14,33.984L77.14,33.984c-0.953,0-1.729-0.713-1.729-1.592c0-0.877,0.776-1.592,1.729-1.592
			l7.286-0.006c0.559,0,1.013,0.424,1.013,0.944v1.294c0,0.521-0.454,0.945-1.013,0.945L77.14,33.984z M84.426,31.39l-7.285,0.006
			c-0.626,0-1.134,0.447-1.134,0.997c0,0.551,0.508,0.998,1.133,0.998l7.286-0.008c0.23,0,0.419-0.156,0.419-0.35v-1.294
			C84.845,31.546,84.656,31.39,84.426,31.39z"/>
	</g>
	<g>
		<path fill="#FFFFFF" d="M87.439,18.517h4.951c-0.006,0.091-0.015,0.186-0.015,0.279c0,3.538,2.911,6.406,6.502,6.406v4.456
			c-3.591,0-6.502,2.87-6.502,6.408c0,0.094,0.009,0.188,0.015,0.279h-4.951V18.517"/>
		<path fill="#231F20" d="M92.7,36.643h-5.558V18.22H92.7l-0.02,0.416c-0.004,0.053-0.008,0.106-0.008,0.16
			c0,3.368,2.783,6.109,6.205,6.109h0.297v5.05h-0.297c-3.422,0-6.205,2.742-6.205,6.111c0,0.053,0.004,0.107,0.008,0.16
			L92.7,36.643z M87.736,36.049h4.343c0.009-3.591,2.896-6.527,6.502-6.682v-3.875c-3.606-0.154-6.493-3.088-6.502-6.679h-4.343
			V36.049z"/>
	</g>
	<g>
		<path fill="#FFFFFF" d="M86.486,18.517v17.829c0,0.547,0.671,0.99,1.497,0.99h7.779c0.411,0,0.804-0.111,1.086-0.31
			c0.266-0.185,0.412-0.427,0.412-0.681c0-0.018,0-0.035-0.004-0.053l-0.01-0.117c-0.003-0.035-0.011-0.072-0.011-0.109
			c0-2.986,3.912-5.418,8.722-5.418c0.826,0,1.498-0.443,1.498-0.99v-4.456c0-0.548-0.672-0.991-1.498-0.991
			c-4.81,0-8.722-2.429-8.722-5.416c0-0.036,0.008-0.073,0.011-0.109l0.01-0.117c0.004-0.017,0.004-0.034,0.004-0.052
			c0-0.253-0.146-0.497-0.412-0.681c-0.282-0.197-0.675-0.31-1.086-0.31h-7.779C87.157,17.527,86.486,17.97,86.486,18.517
			L86.486,18.517z"/>
		<path fill="#231F20" d="M95.763,37.634h-7.779c-1.005,0-1.794-0.566-1.794-1.288V18.517c0-0.722,0.789-1.287,1.794-1.287h7.779
			c0.476,0,0.922,0.129,1.256,0.363c0.342,0.237,0.539,0.575,0.539,0.924c0,0.036-0.002,0.07-0.008,0.106l-0.011,0.13
			c-0.002,0.014-0.006,0.028-0.006,0.042c0,2.822,3.78,5.119,8.425,5.119c1.005,0,1.795,0.565,1.795,1.288v4.456
			c0,0.723-0.79,1.287-1.795,1.287c-4.645,0-8.425,2.299-8.425,5.121c0,0.014,0.004,0.029,0.006,0.041l0.015,0.158
			c0.002,0.01,0.004,0.045,0.004,0.08c0,0.35-0.195,0.688-0.539,0.925C96.685,37.505,96.238,37.634,95.763,37.634z M87.983,17.824
			c-0.638,0-1.2,0.324-1.2,0.693v17.829c0,0.369,0.563,0.693,1.2,0.693h7.779c0.351,0,0.685-0.093,0.917-0.256
			c0.183-0.129,0.284-0.283,0.284-0.438l-0.014-0.143c-0.007-0.059-0.011-0.098-0.011-0.137c0-3.15,4.045-5.715,9.019-5.715
			c0.638,0,1.2-0.324,1.2-0.693v-4.456c0-0.328-0.494-0.693-1.2-0.693c-4.974,0-9.019-2.563-9.019-5.713
			c0-0.039,0.004-0.078,0.009-0.116l0.014-0.137c0.002-0.181-0.1-0.335-0.282-0.463c-0.232-0.163-0.566-0.256-0.917-0.256
			L87.983,17.824L87.983,17.824z"/>
	</g>
	<g>
		<path fill="#FFFFFF" d="M83.937,17.474V37.39c0,1.446,1.07,2.621,2.384,2.621s2.383-1.175,2.383-2.621V17.474
			c0-1.445-1.069-2.621-2.383-2.621S83.937,16.028,83.937,17.474L83.937,17.474z"/>
		<path fill="#231F20" d="M86.32,40.308c-1.478,0-2.681-1.31-2.681-2.918V17.474c0-1.609,1.203-2.917,2.681-2.917
			S89,15.865,89,17.474V37.39C89,38.998,87.798,40.308,86.32,40.308z M86.32,15.15c-1.149,0-2.087,1.042-2.087,2.324V37.39
			c0,1.282,0.938,2.323,2.087,2.323c1.15,0,2.086-1.043,2.086-2.323V17.474C88.406,16.192,87.471,15.15,86.32,15.15z"/>
	</g>
	<g>
		<g>
			<path fill="#FFFFFF" d="M174.598,16.818c-1.813-0.259-3.829-0.665-5.707-1.294c-5.252-1.759-21.906-9.041-25.519-10.88
				c-3.609-1.841-5.993-2.967-9.6-0.64c-2.79,1.801-11.589,6.962-15.406,9.782c-3.814,2.82-5.146,5.146-7.629,9.3
				c-1.293,2.16-2.767,6.59-3.608,12.412c-0.274,1.904,0.247,2.867,1.708,3.281c2.239,0.629,4.031-1.134,6.377-5.287
				c0,0,0.541,1.063,1.485,2.23c0.223,0.277,0.784,0.596,1.068,0.689c0.101,0.031,2.298,4.102,2.298,4.102
				c1.098,1.172,2.686,1.232,3.872-0.916c0,0,0.413,1.252,4.275,3.675c2.839,1.782,3.631,2.968,4.68,2.743
				c0.929-0.197,1.218-0.564,1.218-0.564s1.162,0.204,1.799,0.253c1.16,0.091,5.62,0.02,6.956-0.027
				c0.81-0.028,2.549-0.509,2.346-2.488c-0.202-1.979-1.92-3.22-4.174-3.478c-0.985-0.113-2.868-0.426-3.42-0.537
				c-0.55-0.113,0.38-0.482,0.587-1.243c0,0,0.312-0.029,1.152,0.479c1.087,0.656,2.029,1.244,4.231,1.811
				c1.845,0.472,5.689,2.176,11.795,2.657c3.785,0.297,7.729-1.138,10.841-0.903c2.189,0.164,3.161,0.57,8.479,0.023"/>
			<path fill="#020202" d="M132.639,46.34c-0.659,0-1.262-0.452-2.179-1.141c-0.608-0.455-1.365-1.023-2.403-1.675
				c-2.616-1.642-3.689-2.759-4.121-3.352c-0.705,1.054-1.455,1.364-1.984,1.431c-0.736,0.09-1.481-0.223-2.102-0.887
				c-0.019-0.018-0.033-0.039-0.046-0.062c-0.745-1.38-1.959-3.598-2.218-3.993c-0.337-0.133-0.874-0.451-1.117-0.754
				c-0.579-0.713-1.006-1.385-1.258-1.813c-2.039,3.52-3.946,5.674-6.453,4.969c-1.623-0.459-2.217-1.571-1.922-3.609
				c0.9-6.246,2.474-10.563,3.645-12.521l0.199-0.332c2.34-3.914,3.751-6.275,7.51-9.055c2.656-1.961,7.753-5.077,11.476-7.352
				c1.66-1.014,3.094-1.89,3.945-2.441c3.828-2.47,6.373-1.171,9.896,0.625c3.571,1.82,20.221,9.103,25.478,10.863
				c1.631,0.546,3.533,0.978,5.656,1.282c0.162,0.023,0.274,0.174,0.253,0.336c-0.024,0.163-0.176,0.275-0.338,0.252
				c-2.158-0.309-4.095-0.749-5.759-1.307c-5.275-1.767-21.977-9.072-25.56-10.897c-3.788-1.931-5.923-2.837-9.304-0.655
				c-0.859,0.555-2.297,1.433-3.959,2.449c-3.713,2.269-8.797,5.376-11.431,7.322c-3.665,2.709-4.976,4.902-7.353,8.882
				l-0.199,0.333c-1.143,1.909-2.681,6.142-3.569,12.302c-0.253,1.749,0.167,2.575,1.495,2.951c1.944,0.549,3.637-0.897,6.038-5.146
				c0.054-0.096,0.155-0.154,0.266-0.15c0.108,0.002,0.208,0.064,0.258,0.162c0.006,0.01,0.539,1.053,1.45,2.178
				c0.183,0.227,0.689,0.516,0.93,0.594c0.142,0.047,0.214,0.07,2.449,4.209c0.481,0.502,1.035,0.742,1.568,0.676
				c0.66-0.082,1.282-0.622,1.801-1.559c0.057-0.104,0.167-0.164,0.287-0.154c0.118,0.012,0.218,0.092,0.255,0.203
				c0.002,0.006,0.496,1.225,4.152,3.517c1.059,0.664,1.826,1.241,2.444,1.704c1.057,0.793,1.503,1.109,2.014,1
				c0.788-0.166,1.05-0.461,1.052-0.465c0.068-0.078,0.177-0.121,0.28-0.102c0.011,0.002,1.154,0.201,1.769,0.25
				c1.157,0.09,5.634,0.017,6.923-0.029c0.5-0.018,1.24-0.217,1.677-0.717c0.315-0.363,0.447-0.85,0.386-1.444
				c-0.177-1.726-1.677-2.955-3.912-3.212c-1-0.115-2.898-0.43-3.446-0.541c-0.212-0.045-0.343-0.143-0.391-0.295
				c-0.075-0.24,0.098-0.424,0.28-0.617c0.176-0.186,0.393-0.415,0.469-0.699c0.033-0.12,0.137-0.206,0.26-0.219
				c0.096-0.009,0.478,0.002,1.334,0.521l0.072,0.043c1.057,0.64,1.968,1.192,4.08,1.733c0.428,0.11,0.965,0.287,1.586,0.49
				c2.181,0.713,5.474,1.791,10.158,2.159c1.956,0.153,3.957-0.165,5.892-0.472c1.768-0.281,3.437-0.545,4.947-0.432
				c0.462,0.033,0.873,0.08,1.273,0.123c1.531,0.17,2.977,0.33,7.155-0.098c0.164-0.016,0.308,0.102,0.324,0.266
				c0.017,0.162-0.102,0.309-0.264,0.326c-4.24,0.435-5.718,0.271-7.282,0.098c-0.394-0.043-0.799-0.088-1.251-0.123
				c-1.44-0.107-3.077,0.152-4.811,0.428c-1.969,0.312-4.005,0.636-6.03,0.476c-4.755-0.372-8.091-1.464-10.297-2.187
				c-0.287-0.094-0.555-0.182-0.802-0.259c0.706,0.636,1.146,1.466,1.245,2.43c0.077,0.766-0.1,1.405-0.528,1.897
				c-0.563,0.643-1.455,0.896-2.104,0.919c-1.299,0.045-5.813,0.119-6.989,0.028c-0.515-0.041-1.341-0.175-1.679-0.232
				c-0.183,0.151-0.563,0.391-1.252,0.538C132.847,46.328,132.742,46.34,132.639,46.34z M137.91,38.928
				c0.546,0.1,1.572,0.27,2.419,0.391c-0.375-0.199-0.713-0.404-1.054-0.611l-0.072-0.043c-0.393-0.236-0.654-0.346-0.81-0.396
				C138.261,38.547,138.063,38.766,137.91,38.928z"/>
		</g>
		<g>
			<path fill="#FFFFFF" d="M174.248,16.719c-1.813-0.26-3.704-0.64-5.357-1.195c-5.252-1.759-21.906-9.041-25.519-10.88
				c-3.609-1.841-5.993-2.967-9.6-0.64c-2.79,1.801-11.589,6.962-15.406,9.782c-3.814,2.82-5.145,5.146-7.629,9.3
				c-1.293,2.161-2.767,6.59-3.608,12.413c-0.274,1.903,0.247,2.867,1.71,3.281c2.237,0.629,4.029-1.134,6.375-5.287
				c0,0,0.541,1.063,1.485,2.229c0.223,0.277,0.784,0.598,1.068,0.691c0.101,0.031,2.298,4.102,2.298,4.102
				c1.098,1.172,2.686,1.23,3.872-0.916c0,0,0.413,1.252,4.275,3.675c2.841,1.782,3.631,2.967,4.68,2.743
				c0.929-0.197,1.218-0.564,1.218-0.564s1.162,0.204,1.799,0.253c1.162,0.091,5.62,0.019,6.956-0.028
				c0.812-0.029,2.549-0.508,2.346-2.489c-0.202-1.978-1.918-3.218-4.174-3.476c-0.985-0.113-2.868-0.426-3.42-0.537
				c-0.55-0.113,0.382-0.482,0.587-1.243c0,0,0.313-0.029,1.152,0.479c1.087,0.656,2.029,1.244,4.231,1.811
				c1.845,0.472,5.689,2.176,11.795,2.655c3.785,0.297,7.729-1.136,10.841-0.901c1.957,0.146,3.632,0.43,7.985,0.08"/>
			<path fill="#020202" d="M132.639,46.34c-0.659,0-1.262-0.452-2.179-1.141c-0.608-0.455-1.365-1.023-2.403-1.675
				c-2.616-1.642-3.689-2.759-4.121-3.352c-0.705,1.054-1.455,1.364-1.984,1.431c-0.736,0.09-1.481-0.223-2.102-0.887l-0.046-0.062
				c-0.745-1.38-1.959-3.598-2.218-3.993c-0.337-0.133-0.874-0.451-1.117-0.754c-0.579-0.713-1.006-1.385-1.258-1.813
				c-2.039,3.52-3.946,5.674-6.453,4.969c-1.623-0.459-2.217-1.571-1.922-3.609c0.9-6.246,2.474-10.563,3.645-12.521l0.199-0.332
				c2.34-3.914,3.751-6.275,7.51-9.055c2.656-1.961,7.753-5.077,11.476-7.352c1.66-1.014,3.094-1.89,3.945-2.441
				c3.828-2.47,6.373-1.171,9.896,0.625c3.571,1.82,20.221,9.103,25.478,10.863c1.458,0.488,3.241,0.886,5.306,1.182l-0.085,0.588
				c-2.1-0.302-3.918-0.708-5.408-1.207c-5.275-1.767-21.977-9.072-25.56-10.897c-3.788-1.932-5.923-2.838-9.304-0.656
				c-0.859,0.555-2.297,1.433-3.959,2.449c-3.713,2.269-8.797,5.376-11.431,7.322c-3.665,2.709-4.976,4.902-7.353,8.882
				l-0.199,0.333c-1.143,1.909-2.681,6.143-3.569,12.303c-0.253,1.749,0.167,2.575,1.495,2.951c1.944,0.547,3.637-0.897,6.038-5.146
				l0.271-0.482l0.252,0.494c0.006,0.01,0.539,1.052,1.45,2.178c0.183,0.225,0.689,0.516,0.93,0.594
				c0.142,0.045,0.214,0.068,2.449,4.209c0.481,0.502,1.035,0.742,1.568,0.676c0.66-0.082,1.282-0.622,1.801-1.561l0.328-0.596
				l0.214,0.646c0.002,0.006,0.496,1.224,4.152,3.517c1.059,0.664,1.826,1.241,2.444,1.704c1.057,0.791,1.503,1.109,2.014,1
				c0.788-0.167,1.05-0.461,1.052-0.465l0.11-0.127l0.17,0.023c0.011,0.002,1.154,0.203,1.769,0.252
				c1.157,0.09,5.634,0.016,6.923-0.029c0.5-0.018,1.24-0.217,1.677-0.717c0.315-0.363,0.447-0.85,0.386-1.444
				c-0.177-1.726-1.677-2.956-3.912-3.212c-1-0.115-2.898-0.43-3.446-0.543c-0.212-0.043-0.343-0.141-0.391-0.293
				c-0.075-0.24,0.098-0.424,0.28-0.617c0.176-0.186,0.393-0.415,0.469-0.699l0.054-0.198l0.206-0.021
				c0.096-0.009,0.478,0.002,1.334,0.521l0.072,0.043c1.057,0.64,1.968,1.192,4.08,1.733c0.428,0.11,0.965,0.287,1.586,0.49
				c2.181,0.713,5.474,1.791,10.158,2.159c1.956,0.153,3.957-0.165,5.892-0.472c1.768-0.281,3.437-0.547,4.947-0.432
				c0.311,0.023,0.613,0.049,0.921,0.076c1.66,0.146,3.378,0.297,7.019,0.004l0.048,0.594c-3.69,0.296-5.512,0.137-7.118-0.006
				c-0.305-0.025-0.604-0.053-0.913-0.076c-1.44-0.107-3.077,0.152-4.811,0.427c-1.969,0.313-4.005,0.637-6.03,0.477
				c-4.755-0.373-8.091-1.464-10.297-2.187c-0.287-0.094-0.555-0.182-0.802-0.26c0.706,0.637,1.146,1.467,1.245,2.431
				c0.079,0.766-0.1,1.403-0.528,1.896c-0.563,0.645-1.455,0.898-2.104,0.921c-1.299,0.045-5.813,0.118-6.989,0.028
				c-0.513-0.041-1.341-0.176-1.677-0.232c-0.183,0.151-0.564,0.391-1.254,0.537C132.847,46.328,132.742,46.34,132.639,46.34z
				 M137.91,38.928c0.546,0.1,1.572,0.27,2.419,0.391c-0.375-0.199-0.713-0.404-1.054-0.611l-0.072-0.043
				c-0.393-0.236-0.654-0.346-0.81-0.396C138.261,38.547,138.063,38.766,137.91,38.928z"/>
		</g>
		<g>
			<path fill="#020202" d="M115.143,34.639c-0.03,0-0.06-0.005-0.089-0.014c-0.157-0.05-0.243-0.217-0.193-0.373l0.546-1.732
				c0.05-0.156,0.216-0.243,0.372-0.194c0.157,0.051,0.244,0.217,0.194,0.374l-0.548,1.732
				C115.386,34.558,115.27,34.639,115.143,34.639z"/>
		</g>
		<g>
			<path fill="#020202" d="M124.013,40.666c-0.031,0-0.066-0.004-0.098-0.016c-0.154-0.056-0.236-0.225-0.183-0.379
				c0.004-0.011,0.345-0.998,0.214-2.329c-0.085-0.867-0.098-2.146-0.098-2.829c0-0.672-0.293-1.607-0.297-1.617
				c-0.05-0.156,0.037-0.324,0.193-0.373c0.157-0.049,0.325,0.037,0.373,0.193c0.015,0.043,0.324,1.034,0.324,1.796
				c0,0.542,0.01,1.897,0.097,2.771c0.144,1.47-0.229,2.54-0.246,2.585C124.251,40.591,124.137,40.666,124.013,40.666z"/>
		</g>
		<g>
			<path fill="#020202" d="M134.256,46.25c-0.075,0-0.152-0.029-0.212-0.088c-0.114-0.117-0.112-0.306,0.004-0.421
				c1.636-1.61,1.133-4.675-0.393-6.235c-1.319-1.354-3.253-2.397-3.272-2.409c-0.1-0.055-0.161-0.161-0.155-0.276
				c0.029-0.639-0.135-1.586-0.137-1.596c-0.027-0.162,0.081-0.316,0.242-0.344c0.164-0.027,0.315,0.08,0.343,0.242
				c0.008,0.037,0.149,0.859,0.149,1.539c0.506,0.286,2.083,1.226,3.256,2.428c1.716,1.756,2.258,5.23,0.384,7.074
				C134.407,46.222,134.332,46.25,134.256,46.25z"/>
		</g>
		<g>
			<path fill="#020202" d="M134.768,24.089c-0.124,0-0.238-0.078-0.281-0.201c-0.018-0.054-0.451-1.329-0.337-2.402
				c0.077-0.722,0.393-1.26,0.671-1.734c0.122-0.207,0.238-0.403,0.323-0.596c0.066-0.149,0.241-0.219,0.391-0.152
				c0.151,0.066,0.218,0.241,0.153,0.392c-0.1,0.226-0.223,0.436-0.354,0.659c-0.26,0.442-0.529,0.901-0.594,1.495
				c-0.1,0.942,0.305,2.133,0.311,2.145c0.053,0.155-0.03,0.325-0.185,0.378C134.832,24.083,134.799,24.089,134.768,24.089z"/>
		</g>
		<g>
			<path fill="#020202" d="M132.522,21.956c-0.969,0-2.14-0.108-3.144-0.509c-1.804-0.723-2.33-2.105-2.677-3.021l-0.079-0.209
				c-0.361-0.929-0.859-2.797-0.926-3.653c-0.013-0.163,0.108-0.307,0.272-0.319c0.161-0.014,0.307,0.109,0.319,0.273
				c0.062,0.794,0.548,2.61,0.888,3.484l0.081,0.213c0.347,0.916,0.778,2.055,2.343,2.68c1.518,0.608,3.536,0.477,4.388,0.383
				c-0.239-0.53-0.499-1.318-0.802-2.427c-0.268-0.974-0.487-3.279-0.398-4.182c0.127-1.293,0.096-3.073,0.096-3.09
				c-0.004-0.165,0.127-0.3,0.291-0.303c0.174-0.007,0.299,0.128,0.303,0.292c0.002,0.074,0.031,1.832-0.098,3.16
				c-0.081,0.835,0.131,3.06,0.38,3.967c0.135,0.498,0.548,2.013,0.939,2.673c0.05,0.084,0.055,0.189,0.015,0.277
				c-0.043,0.089-0.126,0.152-0.222,0.167C134.428,21.822,133.602,21.956,132.522,21.956z"/>
		</g>
		<g>
			<path fill="#020202" d="M135.835,24.057c-0.1,0-0.197-0.05-0.253-0.142c-0.086-0.139-0.044-0.322,0.097-0.408
				c0.019-0.012,1.843-1.153,2.134-2.373c0.039-0.16,0.199-0.258,0.358-0.22c0.16,0.038,0.258,0.198,0.221,0.358
				c-0.349,1.459-2.316,2.688-2.401,2.74C135.942,24.043,135.889,24.057,135.835,24.057z"/>
		</g>
		<g>
			<path fill="#020202" d="M121.914,23.11c-0.058,0-0.114-0.017-0.162-0.048c-0.093-0.06-2.28-1.494-4.23-3.903
				c-0.103-0.127-0.083-0.314,0.045-0.417c0.127-0.104,0.315-0.083,0.417,0.043c1.684,2.081,3.604,3.445,4.012,3.726
				c2.104-0.148,4.352-1.968,5.128-2.653c-0.448-0.317-1.201-0.994-1.625-2.166c-0.056-0.154,0.023-0.325,0.179-0.381
				c0.153-0.056,0.325,0.024,0.38,0.179c0.537,1.479,1.675,2.051,1.687,2.056c0.086,0.042,0.147,0.125,0.162,0.22
				c0.017,0.096-0.017,0.192-0.085,0.26c-0.124,0.121-3.061,2.954-5.894,3.085C121.923,23.11,121.918,23.11,121.914,23.11z"/>
		</g>
		<g>
			<path fill="#FFFFFF" d="M121.914,22.813c2.752-0.126,5.698-3,5.698-3c0.35,0.461,0.992,1.053,1.877,1.358
				c2.105,0.727,4.955,0.348,4.955,0.348c-0.108,1.019,0.323,2.273,0.323,2.273"/>
			<path fill="#020202" d="M134.768,24.089c-0.124,0-0.238-0.078-0.281-0.201c-0.017-0.048-0.361-1.06-0.357-2.038
				c-0.841,0.077-3.009,0.197-4.735-0.399c-0.876-0.302-1.478-0.84-1.81-1.207c-0.766,0.69-3.248,2.755-5.657,2.866
				c-0.162,0.007-0.303-0.119-0.31-0.284c-0.008-0.164,0.119-0.303,0.282-0.311c2.609-0.12,5.477-2.888,5.506-2.917
				c0.061-0.059,0.144-0.09,0.229-0.083s0.164,0.049,0.216,0.117c0.203,0.268,0.778,0.926,1.738,1.257
				c2.01,0.694,4.79,0.337,4.817,0.334c0.089-0.013,0.181,0.018,0.246,0.082c0.066,0.064,0.098,0.154,0.088,0.244
				c-0.1,0.943,0.305,2.134,0.311,2.146c0.053,0.155-0.03,0.324-0.185,0.378C134.832,24.083,134.799,24.089,134.768,24.089z"/>
		</g>
		<g>
			<path fill="#020202" d="M134.444,21.815c-0.05,0-0.1-0.012-0.146-0.038c-0.064-0.037-1.604-0.913-2.185-2.412
				c-0.059-0.153,0.017-0.325,0.17-0.384c0.153-0.06,0.326,0.017,0.386,0.169c0.504,1.303,1.905,2.1,1.918,2.108
				c0.145,0.08,0.196,0.261,0.114,0.404C134.649,21.76,134.548,21.815,134.444,21.815z"/>
		</g>
		<g>
			<path fill="#020202" d="M134.085,39.553c-0.139,0-0.263-0.098-0.292-0.24c-0.031-0.16,0.074-0.318,0.234-0.35
				c0.788-0.154,4.302-0.334,4.451-0.34c0.158-0.012,0.303,0.117,0.312,0.281c0.008,0.164-0.118,0.305-0.282,0.313
				c-0.037,0.002-3.619,0.182-4.364,0.33C134.123,39.551,134.104,39.553,134.085,39.553z"/>
		</g>
		<g>
			<path fill="#020202" d="M133.996,39.34c-0.153,0-0.284-0.119-0.295-0.275c0-0.008-0.068-0.872-0.338-1.517
				c-0.064-0.15,0.008-0.325,0.159-0.389c0.15-0.063,0.326,0.008,0.389,0.16c0.309,0.734,0.378,1.661,0.382,1.7
				c0.013,0.164-0.11,0.307-0.274,0.318C134.011,39.34,134.004,39.34,133.996,39.34z"/>
		</g>
		<g>
			<path fill="#020202" d="M130.522,37.315c-0.048,0-0.096-0.012-0.142-0.036c-2.023-1.115-3.451-1.072-3.468-1.072
				c-0.149,0.004-0.301-0.121-0.309-0.283c-0.007-0.164,0.12-0.303,0.282-0.311c0.064-0.002,1.598-0.057,3.78,1.145
				c0.144,0.08,0.197,0.261,0.117,0.405C130.729,37.261,130.628,37.315,130.522,37.315z"/>
		</g>
		<g>
			<path fill="#020202" d="M130.524,37.188c-0.079,0-0.156-0.03-0.216-0.093c-0.007-0.008-0.799-0.829-1.804-1.21
				c-0.153-0.059-0.23-0.23-0.174-0.383c0.06-0.154,0.23-0.231,0.384-0.174c1.137,0.432,1.988,1.318,2.023,1.355
				c0.114,0.119,0.109,0.309-0.009,0.422C130.67,37.16,130.599,37.188,130.524,37.188z"/>
		</g>
		<g>
			<path fill="#020202" d="M136.494,23.535c-0.004,0-0.006,0-0.01,0c-0.164-0.004-0.293-0.142-0.288-0.305
				c0.06-2.09,1.38-5.178,1.438-5.309c0.064-0.151,0.239-0.22,0.389-0.155c0.151,0.065,0.222,0.24,0.155,0.39
				c-0.013,0.031-1.332,3.114-1.387,5.09C136.785,23.408,136.654,23.535,136.494,23.535z"/>
		</g>
		<g>
			<path fill="#FFFFFF" d="M143.349,45.744c0,0-0.554,0.109-2.22,0.088c-1.662-0.022-2.445-0.91-2.623-1.795
				c-0.437-2.18,1.554-2.273,1.554-2.273c0.642-0.021,1.951-0.109,1.951-0.109s0.598-0.086,0.688,0.434
				c0.088,0.521,0.345,2.098,0.828,3.182C143.646,45.535,143.689,45.71,143.349,45.744z"/>
			<path fill="#020202" d="M141.568,46.131c-0.139,0-0.286,0-0.442-0.002c-1.851-0.025-2.718-1.068-2.911-2.035
				c-0.155-0.771-0.048-1.399,0.317-1.869c0.55-0.703,1.474-0.756,1.513-0.758c0.614-0.021,1.854-0.102,1.942-0.107
				c0.003-0.002,0.052-0.006,0.118-0.006c0.474,0,0.813,0.262,0.887,0.684l0.01,0.059c0.094,0.56,0.347,2.041,0.797,3.053
				c0.067,0.154,0.183,0.412,0.051,0.638c-0.127,0.219-0.385,0.245-0.47,0.254l0,0C143.385,46.041,142.905,46.131,141.568,46.131z
				 M142.105,41.947c-0.03,0-0.049,0.002-0.056,0.002c-0.072,0.006-1.341,0.092-1.981,0.111c-0.002,0-0.691,0.045-1.069,0.534
				c-0.253,0.325-0.321,0.791-0.203,1.383c0.072,0.36,0.454,1.531,2.337,1.558c1.483,0.02,2.069-0.066,2.149-0.08
				c-0.008-0.02-0.017-0.039-0.028-0.064c-0.479-1.08-0.739-2.616-0.839-3.195l-0.01-0.057
				C142.396,42.08,142.372,41.947,142.105,41.947z"/>
		</g>
		<g>
			<path fill="#FFFFFF" d="M129.652,41.193c0,0,1.082,0.58,1.399,0.787c0.319,0.207,0.448,0.663,0.319,1.159
				c-0.127,0.498-0.488,2.011,0.716,2.925c0.149,0.113,0.1,0.274-0.266,0.063c-0.367-0.209-2.785-2.09-3.444-2.628
				c-0.599-0.485-0.942-1.167-0.698-1.833C127.944,40.936,129.107,40.887,129.652,41.193z"/>
			<path fill="#020202" d="M132.096,46.527c-0.117,0-0.256-0.047-0.424-0.143c-0.396-0.228-2.83-2.125-3.482-2.655
				c-0.764-0.619-1.059-1.429-0.792-2.165c0.19-0.522,0.757-0.846,1.477-0.846c0.343,0,0.681,0.078,0.924,0.217
				c0.039,0.02,1.092,0.584,1.417,0.795c0.43,0.281,0.604,0.864,0.444,1.484c-0.309,1.213-0.111,2.068,0.608,2.613
				c0.164,0.124,0.232,0.301,0.177,0.463C132.396,46.435,132.261,46.527,132.096,46.527z M128.874,41.313
				c-0.364,0-0.796,0.119-0.917,0.455c-0.178,0.486,0.05,1.048,0.606,1.501c0.454,0.369,1.679,1.325,2.536,1.974
				c-0.227-0.596-0.233-1.323-0.017-2.175c0.095-0.365,0.017-0.702-0.193-0.839c-0.303-0.197-1.367-0.768-1.378-0.773
				C129.352,41.365,129.115,41.313,128.874,41.313z"/>
		</g>
		<g>
			<path fill="#FFFFFF" d="M119.276,37.409c0,0-0.805-0.892-1.354-1.337c-0.548-0.445-0.656-0.195-0.585,0.107
				c0.074,0.303,1.627,3.494,2.23,4.332c0.34,0.473,0.73,0.801,1.023,0.836c0.292,0.037-0.015-0.049-0.603-0.926
				c-0.624-0.928-0.458-1.998-0.458-1.998C119.642,37.979,119.457,37.623,119.276,37.409z"/>
			<path fill="#020202" d="M120.667,41.652L120.667,41.652c-0.026,0-0.064-0.002-0.112-0.01c-0.533-0.064-1.037-0.689-1.229-0.957
				c-0.624-0.867-2.191-4.078-2.278-4.436c-0.056-0.23-0.029-0.422,0.075-0.555c0.083-0.105,0.203-0.162,0.342-0.162
				c0.181,0,0.386,0.1,0.646,0.309c0.561,0.455,1.352,1.331,1.385,1.368c0.19,0.223,0.475,0.676,0.323,1.286l0,0
				c0.002,0-0.127,0.953,0.415,1.76c0.266,0.395,0.465,0.616,0.585,0.748c0.112,0.127,0.241,0.268,0.154,0.463
				C120.953,41.51,120.873,41.652,120.667,41.652z M117.685,36.264c0.223,0.525,0.999,2.123,1.599,3.205
				c-0.12-0.592-0.052-1.059-0.046-1.09c0.089-0.361-0.056-0.62-0.188-0.778c-0.002-0.002-0.789-0.872-1.313-1.298
				C117.718,36.289,117.701,36.275,117.685,36.264z"/>
		</g>
		<g>
			<path fill="#FFFFFF" d="M138.435,38.381c0,0-3.965-1.611-6.14-2.531c-2.811-1.189-5.701-1.922-8.287-2.441
				c-2.583-0.52-6.686-0.242-11.28-1.44c-1.498-0.39-2.878-0.745-4.084-1.081c-1.656-0.459-3.088-1.802-2.903-3.967
				c0.131-1.51,0.774-3.518,3.829-4.383c2.106-0.597,4.689-0.6,5.947-0.65c3.895-0.155,7.508,0.8,10.173,1.56
				c2.668,0.76,5.621,0.6,7.551,0.241c1.927-0.361,2.01-0.361,3.526-0.321c1.519,0.04,2.544-0.4,2.544-0.4"/>
			<path fill="#020202" d="M138.435,38.678c-0.039,0-0.076-0.006-0.113-0.021c-0.038-0.016-3.989-1.622-6.143-2.533
				c-2.36-1-4.977-1.77-8.23-2.422c-0.972-0.197-2.169-0.277-3.553-0.371c-2.179-0.146-4.886-0.33-7.743-1.075l-0.485-0.125
				c-1.299-0.338-2.527-0.656-3.603-0.956c-1.647-0.457-3.332-1.821-3.119-4.279c0.204-2.379,1.563-3.942,4.041-4.645
				c1.874-0.53,4.131-0.601,5.479-0.643c0.199-0.006,0.38-0.012,0.539-0.018c4.173-0.168,8.137,0.964,10.267,1.571
				c3.181,0.905,6.479,0.408,7.414,0.234c1.97-0.369,2.063-0.367,3.59-0.326c1.442,0.037,2.409-0.373,2.418-0.376
				c0.151-0.064,0.326,0.005,0.391,0.156c0.065,0.15-0.005,0.326-0.156,0.39c-0.043,0.019-1.102,0.468-2.667,0.424
				c-1.5-0.04-1.56-0.042-3.467,0.316c-0.966,0.181-4.381,0.694-7.685-0.247c-2.097-0.598-6.002-1.711-10.081-1.549
				c-0.16,0.007-0.343,0.013-0.544,0.019c-1.32,0.041-3.53,0.11-5.335,0.62c-2.246,0.638-3.429,1.986-3.611,4.123
				c-0.181,2.096,1.27,3.263,2.686,3.655c1.072,0.299,2.297,0.617,3.594,0.954l0.485,0.126c2.804,0.729,5.369,0.903,7.633,1.057
				c1.405,0.096,2.619,0.178,3.632,0.381c3.293,0.662,5.945,1.442,8.345,2.457c2.147,0.91,6.095,2.515,6.134,2.53
				c0.153,0.062,0.227,0.235,0.164,0.388C138.661,38.607,138.551,38.678,138.435,38.678z"/>
		</g>
		<g>
			<path fill="#FFFFFF" d="M111.831,30.707c0.616,0,2.152,0.381,2.44-2.621c0.336-3.507-1.579-4.28-2.092-4.379l-2.031-0.221
				c-0.984-0.06-3.541,0.382-3.589,3.861c-0.021,1.52,0.928,2.854,3.159,3.142C110.497,30.588,111.667,30.707,111.831,30.707z"/>
			<path fill="#020202" d="M112.302,31.02L112.302,31.02c-0.107,0-0.205-0.006-0.296-0.01c-0.064-0.004-0.123-0.006-0.175-0.006
				c-0.203,0-1.435-0.131-2.149-0.223c-2.165-0.277-3.443-1.563-3.42-3.438c0.043-3.071,2.029-4.16,3.719-4.16
				c0.066,0,0.13,0.001,0.187,0.006l2.046,0.221c0.135,0.025,2.75,0.582,2.355,4.704C114.381,30.068,113.639,31.02,112.302,31.02z
				 M109.98,23.778c-0.513,0-3.078,0.172-3.124,3.574c-0.021,1.565,1.036,2.602,2.899,2.84c0.822,0.107,1.94,0.219,2.075,0.219
				c0.061,0,0.129,0.002,0.205,0.006c0.081,0.004,0.169,0.01,0.264,0.01c0.002,0,0.002,0,0.002,0c0.435,0,1.448-0.004,1.675-2.368
				c0.343-3.59-1.764-4.042-1.854-4.06l-2.006-0.217C110.084,23.78,110.034,23.778,109.98,23.778z"/>
		</g>
		<g>
			<g>
				<path fill="#020202" d="M119.767,32.159c-0.064,0-0.131-0.021-0.187-0.064c-1.073-0.865-1.663-2.303-1.748-4.271
					c-0.087-1.927,1.933-3.934,2.018-4.019c0.118-0.115,0.307-0.113,0.421,0.003c0.114,0.117,0.114,0.306-0.004,0.42
					c-0.019,0.019-1.915,1.906-1.843,3.568c0.079,1.815,0.579,3.07,1.529,3.835c0.129,0.103,0.147,0.289,0.046,0.417
					C119.94,32.122,119.854,32.159,119.767,32.159z"/>
			</g>
			<g>
				<path fill="#020202" d="M121.383,31.851c-0.041,0-0.083-0.008-0.124-0.027c-0.149-0.068-0.214-0.244-0.146-0.395
					c0.002-0.005,0.303-0.683,0.162-1.478c-0.313-1.785-0.188-2.209,0.114-3.234l0.105-0.355c0.341-1.192-0.022-2.398-0.025-2.411
					c-0.05-0.157,0.038-0.323,0.195-0.371c0.156-0.048,0.322,0.04,0.37,0.196c0.019,0.056,0.419,1.389,0.03,2.75
					c-0.037,0.129-0.072,0.249-0.105,0.361c-0.291,0.983-0.39,1.314-0.1,2.963c0.174,0.982-0.19,1.794-0.207,1.827
					C121.604,31.786,121.495,31.851,121.383,31.851z"/>
			</g>
			<g>
				<path fill="#020202" d="M120.854,31.901c-0.105,0-0.209-0.057-0.263-0.156c-0.04-0.074-0.088-0.16-0.144-0.256
					c-0.341-0.599-0.915-1.599-1.081-2.919c-0.191-1.525,0.439-3.267,0.467-3.34c0.058-0.154,0.227-0.233,0.38-0.177
					c0.155,0.057,0.234,0.228,0.178,0.381c-0.006,0.017-0.607,1.682-0.434,3.062c0.151,1.202,0.686,2.139,1.007,2.697
					c0.058,0.102,0.108,0.192,0.151,0.271c0.077,0.145,0.023,0.324-0.12,0.402C120.949,31.891,120.901,31.901,120.854,31.901z"/>
			</g>
			<g>
				<path fill="#020202" d="M122.467,32.083c-0.05,0-0.101-0.012-0.147-0.04c-0.142-0.082-0.189-0.264-0.108-0.405
					c0.017-0.029,1.684-3.003,0.238-7.505c-0.05-0.156,0.036-0.323,0.191-0.374c0.157-0.05,0.324,0.036,0.374,0.192
					c1.531,4.769-0.216,7.856-0.289,7.984C122.67,32.03,122.57,32.083,122.467,32.083z"/>
			</g>
		</g>
	</g>
	<g>
		<polygon fill="#E6E3DE" points="58.354,25.468 58.354,23.943 55.619,25.522 52.882,27.102 55.619,28.681 58.354,30.26 
			58.354,28.734 70.282,28.734 70.282,25.468 		"/>
		<path fill="#231F20" d="M58.502,30.518l-5.918-3.416l5.918-3.416v1.634h11.928v3.563H58.502V30.518L58.502,30.518z M53.179,27.102
			l5.026,2.902v-1.418h11.928v-2.969H58.206V24.2L53.179,27.102z"/>
	</g>
</g>
</svg>
