<?xml version="1.0" encoding="utf-8"?>
<!-- Generator: Adobe Illustrator 15.0.2, SVG Export Plug-In . SVG Version: 6.00 Build 0)  -->
<!DOCTYPE svg PUBLIC "-//W3C//DTD SVG 1.1//EN" "http://www.w3.org/Graphics/SVG/1.1/DTD/svg11.dtd">
<svg version="1.1" id="Layer_1" xmlns="http://www.w3.org/2000/svg" xmlns:xlink="http://www.w3.org/1999/xlink" x="0px" y="0px"
	 width="180px" height="51px" viewBox="0 0 180 51" enable-background="new 0 0 180 51" xml:space="preserve">
<g>
	<g>
		<path fill="#FFFFFF" d="M5.297,6.684c0-0.692,0.55-1.253,1.228-1.253h39.383c0.678,0,1.228,0.562,1.228,1.253v40.225
			c0,0.69-0.549,1.254-1.228,1.254H6.525c-0.678,0-1.228-0.563-1.228-1.254V6.684z"/>
		<path fill="#231F20" d="M45.908,48.46H6.525C5.684,48.46,5,47.764,5,46.908V6.684c0-0.855,0.685-1.552,1.525-1.552h39.383
			c0.841,0,1.525,0.696,1.525,1.552v40.225C47.434,47.764,46.75,48.46,45.908,48.46z M6.525,5.728c-0.513,0-0.93,0.429-0.93,0.956
			v40.225c0,0.526,0.417,0.956,0.93,0.956h39.383c0.513,0,0.93-0.43,0.93-0.956V6.684c0-0.527-0.417-0.956-0.93-0.956H6.525z"/>
	</g>
	<g>
		<g>
			<rect x="19.279" y="24.931" fill="#231F20" width="13.876" height="8.325"/>
			<path fill="#231F20" d="M33.452,33.553H18.981v-8.92h14.471V33.553z M19.576,32.958h13.281v-7.73H19.576V32.958z"/>
		</g>
		<g>
			<rect x="21.851" y="22.32" fill="#231F20" width="8.881" height="2.61"/>
			<path fill="#231F20" d="M31.029,25.228h-9.477v-3.205h9.477V25.228z M22.148,24.632h8.286v-2.015h-8.286V24.632z"/>
		</g>
		<g>
			<rect x="24.034" y="20.335" fill="#231F20" width="4.564" height="1.985"/>
			<path fill="#231F20" d="M28.896,22.617h-5.16v-2.58h5.16V22.617z M24.331,22.022h3.97v-1.39h-3.97V22.022z"/>
		</g>
	</g>
	<g>
		<g>
			<polygon fill="#FFFFFF" points="105.727,28.868 105.727,24.724 125.516,24.724 125.516,28.868 			"/>
			<path fill="#231F20" d="M125.666,29.018h-20.087v-4.441h20.087V29.018z M105.877,28.718h19.491v-3.844h-19.491V28.718z"/>
		</g>
		<g>
			<path fill="#333333" d="M105.593,28.868v-4.145v-0.136h0.134h19.789h0.137v0.136v4.145v0.134h-0.137h-19.789h-0.134V28.868
				L105.593,28.868z M105.863,24.859v3.874h19.519v-3.874H105.863L105.863,24.859z"/>
			<path fill="#231F20" d="M125.801,29.152h-20.355v-4.713h20.355V29.152z M106.012,28.582h19.221v-3.573h-19.221V28.582z"/>
		</g>
		<g>
			<polygon fill="#FFFFFF" points="83.704,33.209 83.704,20.382 93.553,20.382 105.727,23.953 105.727,29.639 93.553,33.209 			"/>
			<path fill="#231F20" d="M93.575,33.359H83.554V20.233l10.042,0.006l12.281,3.602v5.908L93.575,33.359z M83.852,33.061h9.681
				l12.046-3.533v-5.462l-12.046-3.533h-9.681V33.061z"/>
		</g>
		<g>
			<path fill="#333333" d="M83.568,33.209V20.382v-0.137h0.136h9.849h0.02l0.021,0.007l12.175,3.57l0.096,0.028v0.102v5.685v0.104
				l-0.096,0.027l-12.175,3.57l-0.021,0.006h-0.02h-9.849h-0.136V33.209L83.568,33.209z M83.839,20.519v12.553h9.698l12.056-3.535
				v-5.483l-12.056-3.535H83.839L83.839,20.519z"/>
			<path fill="#231F20" d="M93.57,33.493H83.419V20.098l10.194,0.006l12.396,3.637v6.11L93.57,33.493z M83.987,32.925h9.527
				l11.93-3.5v-5.26l-11.93-3.497h-9.527V32.925z"/>
		</g>
		<g>
			<polygon fill="#FFFFFF" points="94.874,25.726 94.874,20.77 94.109,20.545 94.109,25.726 			"/>
			<path fill="#231F20" d="M95.023,25.875H93.96v-5.528l1.063,0.312V25.875z M94.258,25.577h0.469v-4.696l-0.469-0.137V25.577z"/>
		</g>
		<g>
			<path fill="#333333" d="M94.738,25.59v-4.718l-0.494-0.146v4.864H94.738L94.738,25.59z M95.01,20.77v4.956v0.135h-0.136h-0.765
				h-0.137v-0.135v-5.181v-0.181l0.172,0.05l0.767,0.225l0.099,0.028V20.77L95.01,20.77z"/>
			<path fill="#231F20" d="M95.158,26.01h-1.335v-5.844l1.335,0.392V26.01z M94.395,25.441h0.195v-4.459l-0.195-0.057V25.441z"/>
		</g>
		<g>
			<polygon fill="#FFFFFF" points="97.189,25.726 97.189,21.449 96.426,21.225 96.426,25.726 			"/>
			<path fill="#231F20" d="M97.339,25.875h-1.063v-4.849l1.063,0.312V25.875z M96.573,25.577h0.468V21.56l-0.468-0.138V25.577z"/>
		</g>
		<g>
			<path fill="#333333" d="M97.055,25.59v-4.04l-0.494-0.145v4.185H97.055L97.055,25.59z M97.325,21.449v4.277v0.135h-0.136h-0.765
				h-0.137v-0.135v-4.501v-0.182l0.174,0.052l0.765,0.224l0.099,0.029V21.449L97.325,21.449z"/>
			<path fill="#231F20" d="M97.475,26.01h-1.334v-5.166l1.334,0.393V26.01z M96.71,25.441h0.194v-3.78l-0.194-0.058V25.441z"/>
		</g>
		<g>
			<polygon fill="#FFFFFF" points="101.822,25.726 101.822,22.807 101.055,22.582 101.055,25.726 			"/>
			<path fill="#231F20" d="M101.971,25.875h-1.063v-3.49l1.063,0.311V25.875z M101.204,25.577h0.468v-2.659l-0.468-0.137V25.577z"/>
		</g>
		<g>
			<path fill="#333333" d="M101.686,25.59v-2.681l-0.494-0.146v2.827H101.686L101.686,25.59z M101.956,22.807v2.918v0.135h-0.134
				h-0.768h-0.136v-0.135v-3.144V22.4l0.174,0.051l0.765,0.225l0.099,0.029V22.807L101.956,22.807z"/>
			<path fill="#231F20" d="M102.105,26.01h-1.334v-3.807l1.334,0.392V26.01z M101.341,25.441h0.195v-2.422l-0.195-0.057V25.441z"/>
		</g>
		<g>
			<polygon fill="#FFFFFF" points="99.507,25.726 99.507,22.127 98.741,21.903 98.741,25.726 			"/>
			<path fill="#231F20" d="M99.654,25.875h-1.063v-4.17l1.063,0.312V25.875z M98.889,25.577h0.469v-3.338l-0.469-0.136V25.577z"/>
		</g>
		<g>
			<path fill="#333333" d="M99.37,25.59v-3.36l-0.495-0.146v3.506H99.37L99.37,25.59z M99.641,22.127v3.598v0.135h-0.134h-0.766
				h-0.138v-0.135v-3.822v-0.181l0.172,0.05l0.769,0.225l0.097,0.029V22.127L99.641,22.127z"/>
			<path fill="#231F20" d="M99.789,26.01h-1.334v-4.486l1.334,0.392V26.01z M99.025,25.441h0.197V22.34l-0.197-0.059V25.441z"/>
		</g>
		<g>
			<polygon fill="#FFFFFF" points="104.139,25.726 104.139,23.486 103.372,23.262 103.372,25.726 			"/>
			<path fill="#231F20" d="M104.286,25.875h-1.063v-2.812l1.063,0.312V25.875z M103.52,25.577h0.469v-1.979l-0.469-0.137V25.577z"/>
		</g>
		<g>
			<path fill="#333333" d="M104.002,25.59v-2.002l-0.496-0.146v2.148H104.002L104.002,25.59z M104.271,23.486v2.24v0.135h-0.135
				h-0.766h-0.137v-0.135v-2.463v-0.181l0.174,0.049l0.766,0.225l0.098,0.028V23.486L104.271,23.486z"/>
			<path fill="#231F20" d="M104.422,26.01h-1.334v-3.128l1.334,0.391V26.01z M103.656,25.441h0.197v-1.742l-0.197-0.058V25.441z"/>
		</g>
		<g>
			<polygon fill="#FFFFFF" points="94.874,32.822 94.874,27.865 94.109,27.865 94.109,33.045 			"/>
			<path fill="#231F20" d="M93.96,33.244v-5.526h1.063v5.216L93.96,33.244z M94.258,28.016v4.832l0.469-0.138v-4.694H94.258z"/>
		</g>
		<g>
			<path fill="#333333" d="M94.738,32.721v-4.719h-0.494v4.863L94.738,32.721L94.738,32.721z M95.01,27.865v4.957v0.101
				l-0.099,0.029l-0.767,0.226l-0.172,0.049v-0.182v-5.18v-0.137h0.137h0.765h0.136V27.865L95.01,27.865z"/>
			<path fill="#231F20" d="M93.823,33.426v-5.845h1.335v5.454L93.823,33.426z M94.395,28.148v4.518l0.195-0.059v-4.459H94.395z"/>
		</g>
		<g>
			<polygon fill="#FFFFFF" points="97.189,32.143 97.189,27.865 96.426,27.865 96.426,32.366 			"/>
			<path fill="#231F20" d="M96.275,32.564v-4.848h1.063v4.536L96.275,32.564z M96.573,28.016v4.153l0.468-0.14v-4.016h-0.468V28.016
				z"/>
		</g>
		<g>
			<path fill="#333333" d="M97.055,32.042v-4.04h-0.494v4.186L97.055,32.042L97.055,32.042z M97.325,27.865v4.277v0.102
				l-0.099,0.029l-0.765,0.223l-0.174,0.054v-0.184v-4.501v-0.137h0.137h0.765h0.136V27.865L97.325,27.865z"/>
			<path fill="#231F20" d="M96.141,32.747v-5.166h1.334v4.772L96.141,32.747z M96.71,28.148v3.838l0.194-0.057v-3.781H96.71z"/>
		</g>
		<g>
			<polygon fill="#FFFFFF" points="101.822,30.785 101.822,27.865 101.055,27.865 101.055,31.01 			"/>
			<path fill="#231F20" d="M100.906,31.207v-3.489h1.064v3.179L100.906,31.207z M101.204,28.016v2.795l0.468-0.138v-2.657H101.204z"
				/>
		</g>
		<g>
			<path fill="#333333" d="M101.686,30.684v-2.682h-0.494v2.826L101.686,30.684L101.686,30.684z M101.956,27.865v2.92v0.102
				l-0.099,0.028l-0.765,0.226l-0.174,0.049v-0.18v-3.145v-0.137h0.136h0.768h0.134V27.865L101.956,27.865z"/>
			<path fill="#231F20" d="M100.771,31.389v-3.808h1.334v3.417L100.771,31.389z M101.341,28.148v2.479l0.195-0.058v-2.422H101.341
				L101.341,28.148z"/>
		</g>
		<g>
			<polygon fill="#FFFFFF" points="99.507,31.464 99.507,27.865 98.741,27.865 98.741,31.688 			"/>
			<path fill="#231F20" d="M98.591,31.887v-4.169h1.063v3.858L98.591,31.887z M98.889,28.016v3.475l0.469-0.137v-3.338H98.889z"/>
		</g>
		<g>
			<path fill="#333333" d="M99.37,31.361v-3.359h-0.495v3.506L99.37,31.361L99.37,31.361z M99.641,27.865v3.599v0.101l-0.097,0.031
				l-0.769,0.223l-0.172,0.051v-0.182v-3.821V27.73h0.138h0.766h0.134V27.865L99.641,27.865z"/>
			<path fill="#231F20" d="M98.455,32.068v-4.487h1.334v4.097L98.455,32.068z M99.025,28.148v3.158l0.197-0.057v-3.102H99.025
				L99.025,28.148z"/>
		</g>
		<g>
			<polygon fill="#FFFFFF" points="104.139,30.105 104.139,27.865 103.372,27.865 103.372,30.329 			"/>
			<path fill="#231F20" d="M103.223,30.527v-2.811h1.063v2.499L103.223,30.527z M103.52,28.016v2.116l0.469-0.139v-1.979h-0.469
				V28.016z"/>
		</g>
		<g>
			<path fill="#333333" d="M104.002,30.003v-2.001h-0.496v2.146L104.002,30.003L104.002,30.003z M104.271,27.865v2.24v0.101
				l-0.098,0.03l-0.766,0.223l-0.174,0.053v-0.183v-2.464v-0.137h0.137h0.766h0.135V27.865L104.271,27.865z"/>
			<path fill="#231F20" d="M103.088,30.71v-3.129h1.334v2.735L103.088,30.71z M103.656,28.148v1.802l0.197-0.058v-1.744H103.656z"/>
		</g>
		<g>
			<path fill="#FFFFFF" d="M83.703,22.344c0.033,0,0.066,0,0.101,0c2.426,0,4.394,1.973,4.394,4.407
				c0,2.435-1.967,4.407-4.394,4.407c-0.034,0-0.068-0.002-0.101-0.002V22.344L83.703,22.344z"/>
			<path fill="#231F20" d="M83.804,31.307l-0.25-0.004v-9.105l0.25-0.003c2.505,0,4.542,2.044,4.542,4.556
				C88.346,29.264,86.309,31.307,83.804,31.307z M83.852,22.493v8.515c2.318-0.025,4.196-1.925,4.196-4.257
				S86.17,22.52,83.852,22.493z"/>
		</g>
		<g>
			<path fill="#333333" d="M83.7,22.209h0.05h0.001l0.051-0.001h0.001c1.25,0,2.383,0.509,3.202,1.331
				c0.82,0.821,1.328,1.957,1.328,3.212s-0.507,2.39-1.328,3.213c-0.819,0.821-1.951,1.33-3.202,1.33l-0.001-0.002h-0.051H83.75
				H83.7l-0.133-0.004v-0.132v-8.812v-0.132L83.7,22.209L83.7,22.209z M86.814,23.73c-0.763-0.765-1.814-1.241-2.976-1.25v8.542
				c1.161-0.01,2.213-0.484,2.976-1.25c0.771-0.772,1.247-1.842,1.247-3.021C88.062,25.572,87.585,24.503,86.814,23.73L86.814,23.73
				z"/>
			<path fill="#231F20" d="M83.804,31.441l-0.386-0.006v-9.371l0.386-0.006c1.25,0,2.424,0.487,3.307,1.374
				c0.884,0.886,1.371,2.064,1.371,3.318c0,1.253-0.487,2.431-1.371,3.317C86.228,30.955,85.053,31.441,83.804,31.441z
				 M83.987,22.633v8.235c1.028-0.046,1.99-0.468,2.722-1.202c0.776-0.777,1.204-1.814,1.204-2.915c0-1.102-0.428-2.136-1.204-2.916
				C85.977,23.102,85.015,22.678,83.987,22.633z"/>
		</g>
		<g>
			<polygon fill="#333333" points="75.408,30.391 83.668,30.391 83.668,30.662 75.408,30.662 			"/>
			<rect x="75.259" y="30.24" fill="#231F20" width="8.558" height="0.57"/>
		</g>
		<g>
			<polygon fill="#333333" points="75.408,29.324 83.668,29.324 83.668,29.598 75.408,29.598 			"/>
			<rect x="75.259" y="29.176" fill="#231F20" width="8.558" height="0.571"/>
		</g>
		<g>
			<polygon fill="#333333" points="75.408,28.258 83.668,28.258 83.668,28.529 75.408,28.529 			"/>
			<rect x="75.259" y="28.109" fill="#231F20" width="8.558" height="0.568"/>
		</g>
		<g>
			<polygon fill="#333333" points="75.408,27.191 83.668,27.191 83.668,27.465 75.408,27.465 			"/>
			<rect x="75.259" y="27.044" fill="#231F20" width="8.558" height="0.567"/>
		</g>
		<g>
			<polygon fill="#333333" points="75.408,26.126 83.668,26.126 83.668,26.398 75.408,26.398 			"/>
			<rect x="75.259" y="25.978" fill="#231F20" width="8.558" height="0.569"/>
		</g>
		<g>
			<polygon fill="#333333" points="75.408,25.062 83.668,25.062 83.668,25.333 75.408,25.333 			"/>
			<rect x="75.259" y="24.912" fill="#231F20" width="8.558" height="0.57"/>
		</g>
		<g>
			<polygon fill="#333333" points="75.408,23.996 83.668,23.996 83.668,24.267 75.408,24.267 			"/>
			<rect x="75.259" y="23.847" fill="#231F20" width="8.558" height="0.569"/>
		</g>
		<g>
			<polygon fill="#333333" points="75.408,22.93 83.668,22.93 83.668,23.202 75.408,23.202 			"/>
			<rect x="75.259" y="22.78" fill="#231F20" width="8.558" height="0.57"/>
		</g>
		<g>
			<polygon fill="#FFFFFF" points="75.408,32.506 75.408,21.084 83.704,21.084 83.704,32.506 			"/>
			<path fill="#231F20" d="M83.852,32.656h-8.593v-11.72h8.593V32.656z M75.557,32.357h7.998V21.233h-7.998V32.357z"/>
		</g>
		<g>
			<path fill="#333333" d="M75.272,32.506V21.084v-0.135h0.136h8.296h0.135v0.135v11.421v0.138h-0.135h-8.296h-0.136V32.506
				L75.272,32.506z M75.543,21.22v11.15h8.024V21.22H75.543L75.543,21.22z"/>
			<path fill="#231F20" d="M83.987,32.79h-8.864V20.799h8.864V32.79z M75.691,32.223h7.728V21.37h-7.728V32.223z"/>
		</g>
		<g>
			<polygon fill="#FFFFFF" points="74.729,29.63 74.729,23.962 81.018,23.962 81.018,25.222 83.704,25.222 83.704,28.371 
				81.018,28.371 81.018,29.63 			"/>
			<path fill="#231F20" d="M81.166,29.777h-6.585v-5.964h6.585v1.259h2.686v3.446h-2.686V29.777z M74.879,29.48h5.989v-1.26h2.686
				V25.37h-2.686v-1.259h-5.989V29.48z"/>
		</g>
		<g>
			<path fill="#333333" d="M74.594,29.63v-5.668v-0.135h0.136h6.288h0.135v0.135v1.124h2.551h0.135v0.136v3.149v0.136h-0.135h-2.551
				v1.123v0.136h-0.135H74.73h-0.136V29.63L74.594,29.63z M74.865,24.099v5.396h6.017v-1.123v-0.138h0.136h2.55v-2.876h-2.55h-0.136
				v-0.136v-1.123H74.865L74.865,24.099z"/>
			<path fill="#231F20" d="M81.302,29.914h-6.856v-6.236h6.856v1.259h2.686v3.717h-2.686V29.914z M75.014,29.344h5.719v-1.258h2.686
				v-2.58h-2.686v-1.259h-5.719V29.344z"/>
		</g>
	</g>
	<g>
		<polygon fill="#E6E3DE" points="58.018,25.159 58.018,23.631 55.276,25.213 52.535,26.796 55.276,28.379 58.018,29.96 
			58.018,28.432 69.97,28.432 69.97,25.159 		"/>
		<path fill="#231F20" d="M58.167,30.219l-5.93-3.423l5.93-3.422v1.637H70.12v3.57H58.167V30.219z M52.832,26.796l5.037,2.907
			v-1.419h11.953v-2.976H57.869v-1.419L52.832,26.796z"/>
	</g>
	<g>
		<g>
			<path fill="#FFFFFF" d="M174.704,17.013c-2.027-0.25-4.399-0.679-6.589-1.413c-5.264-1.763-21.953-9.059-25.571-10.903
				c-3.618-1.846-6.005-2.974-9.619-0.642c-2.796,1.805-11.612,6.977-15.437,9.801c-3.824,2.827-5.158,5.158-7.647,9.32
				c-1.295,2.165-2.771,6.604-3.614,12.436c-0.273,1.908,0.246,2.873,1.713,3.285c2.244,0.631,4.037-1.133,6.389-5.295
				c0,0,0.543,1.066,1.488,2.234c0.226,0.275,0.787,0.598,1.072,0.691c0.1,0.031,2.301,4.106,2.301,4.106
				c1.103,1.175,2.69,1.234,3.881-0.918c0,0,0.412,1.257,4.283,3.683c2.848,1.785,3.638,2.973,4.69,2.748
				c0.929-0.197,1.22-0.566,1.22-0.566s1.163,0.205,1.801,0.255c1.164,0.091,5.635,0.021,6.971-0.03
				c0.813-0.027,2.555-0.507,2.352-2.49c-0.201-1.981-1.921-3.225-4.182-3.481c-0.986-0.114-2.874-0.427-3.428-0.539
				c-0.551-0.114,0.382-0.483,0.588-1.244c0,0,0.313-0.028,1.156,0.479c1.088,0.658,2.033,1.246,4.239,1.813
				c1.849,0.475,5.701,2.182,11.82,2.661c3.792,0.298,7.744-1.14,10.86-0.903"/>
			<path fill="#010101" d="M131.789,46.475c-0.661,0-1.266-0.453-2.184-1.144c-0.609-0.456-1.369-1.026-2.41-1.681
				c-2.621-1.643-3.694-2.762-4.129-3.354c-0.705,1.056-1.457,1.365-1.988,1.433c-0.736,0.092-1.484-0.223-2.105-0.888
				c-0.019-0.019-0.031-0.04-0.046-0.062c-0.745-1.383-1.962-3.604-2.223-4.002c-0.338-0.133-0.874-0.449-1.119-0.754
				c-0.58-0.715-1.007-1.389-1.26-1.813c-2.043,3.522-3.954,5.681-6.468,4.978c-1.625-0.461-2.221-1.576-1.926-3.617
				c0.903-6.258,2.479-10.583,3.653-12.545l0.199-0.332c2.344-3.922,3.757-6.288,7.524-9.074c2.66-1.965,7.769-5.087,11.498-7.367
				c1.662-1.016,3.101-1.894,3.954-2.446c3.835-2.474,6.388-1.174,9.917,0.626c3.579,1.825,20.264,9.122,25.53,10.886
				c1.856,0.622,4.054,1.093,6.528,1.399c0.164,0.02,0.281,0.17,0.26,0.332c-0.02,0.164-0.168,0.278-0.332,0.259
				c-2.516-0.311-4.751-0.791-6.646-1.426c-5.283-1.77-22.021-9.091-25.609-10.92c-3.797-1.935-5.934-2.844-9.323-0.657
				c-0.86,0.556-2.302,1.436-3.968,2.454c-3.719,2.274-8.813,5.387-11.455,7.337c-3.671,2.715-4.984,4.912-7.366,8.9l-0.198,0.333
				c-1.146,1.913-2.687,6.153-3.578,12.323c-0.252,1.754,0.168,2.582,1.5,2.957c1.946,0.55,3.645-0.896,6.049-5.152
				c0.056-0.098,0.16-0.148,0.267-0.152c0.108,0.002,0.21,0.065,0.259,0.162c0.006,0.012,0.539,1.055,1.453,2.184
				c0.184,0.226,0.689,0.516,0.932,0.595c0.144,0.045,0.215,0.069,2.455,4.216c0.482,0.504,1.039,0.745,1.572,0.676
				c0.661-0.08,1.285-0.621,1.805-1.562c0.058-0.103,0.168-0.164,0.285-0.152c0.119,0.011,0.221,0.091,0.258,0.203
				c0.002,0.007,0.494,1.228,4.158,3.522c1.063,0.666,1.832,1.242,2.45,1.707c1.058,0.793,1.513,1.11,2.019,1
				c0.789-0.166,1.052-0.459,1.056-0.463c0.067-0.08,0.176-0.123,0.28-0.104c0.012,0.004,1.156,0.205,1.771,0.25
				c1.165,0.091,5.646,0.019,6.938-0.026c0.502-0.019,1.244-0.218,1.68-0.72c0.318-0.362,0.445-0.851,0.385-1.446
				c-0.175-1.728-1.678-2.959-3.918-3.216c-0.999-0.116-2.9-0.433-3.452-0.545c-0.214-0.041-0.346-0.144-0.394-0.294
				c-0.074-0.241,0.097-0.425,0.281-0.618c0.174-0.187,0.395-0.414,0.472-0.7c0.03-0.119,0.134-0.207,0.258-0.218
				c0.097-0.012,0.479,0,1.339,0.521l0.071,0.041c1.058,0.643,1.972,1.195,4.09,1.738c0.429,0.107,0.965,0.285,1.589,0.488
				c2.184,0.715,5.483,1.795,10.178,2.164c1.961,0.152,3.967-0.166,5.904-0.473c1.771-0.281,3.446-0.549,4.959-0.432
				c0.162,0.012,0.286,0.153,0.271,0.316c-0.012,0.166-0.153,0.291-0.317,0.273c-1.442-0.105-3.083,0.152-4.819,0.428
				c-1.975,0.313-4.014,0.636-6.043,0.478c-4.766-0.373-8.104-1.467-10.317-2.188c-0.288-0.096-0.558-0.184-0.806-0.26
				c0.711,0.637,1.148,1.469,1.25,2.436c0.078,0.766-0.102,1.404-0.529,1.896c-0.563,0.646-1.459,0.899-2.108,0.922
				c-1.299,0.045-5.819,0.121-7.005,0.027c-0.514-0.04-1.343-0.174-1.682-0.23c-0.184,0.149-0.563,0.392-1.254,0.537
				C131.997,46.462,131.893,46.475,131.789,46.475z M137.072,39.048c0.544,0.101,1.572,0.271,2.42,0.392
				c-0.375-0.199-0.711-0.402-1.055-0.611l-0.07-0.044c-0.396-0.236-0.656-0.345-0.813-0.396
				C137.421,38.669,137.225,38.887,137.072,39.048z"/>
		</g>
		<g>
			<path fill="#FFFFFF" d="M174.148,16.888c-2.014-0.26-4.172-0.665-6.033-1.288c-5.264-1.763-21.953-9.059-25.571-10.903
				c-3.618-1.846-6.005-2.974-9.619-0.642c-2.796,1.805-11.612,6.977-15.437,9.801c-3.824,2.827-5.158,5.158-7.647,9.32
				c-1.295,2.165-2.771,6.604-3.614,12.436c-0.273,1.908,0.246,2.873,1.713,3.285c2.244,0.631,4.037-1.133,6.389-5.295
				c0,0,0.543,1.066,1.488,2.234c0.226,0.275,0.787,0.598,1.072,0.691c0.1,0.031,2.301,4.106,2.301,4.106
				c1.103,1.175,2.69,1.234,3.881-0.918c0,0,0.412,1.257,4.283,3.683c2.848,1.785,3.638,2.973,4.69,2.748
				c0.929-0.197,1.22-0.566,1.22-0.566s1.163,0.205,1.801,0.255c1.164,0.091,5.635,0.021,6.971-0.03
				c0.813-0.027,2.555-0.507,2.352-2.49c-0.201-1.981-1.921-3.225-4.182-3.481c-0.986-0.114-2.874-0.427-3.428-0.539
				c-0.551-0.114,0.382-0.483,0.588-1.244c0,0,0.313-0.028,1.156,0.479c1.088,0.658,2.033,1.246,4.24,1.813
				c1.848,0.475,5.7,2.182,11.819,2.661c3.792,0.298,7.744-1.14,10.86-0.903c2.064,0.153,3.815,0.461,8.716,0.02"/>
			<path fill="#010101" d="M131.789,46.475c-0.661,0-1.266-0.453-2.184-1.144c-0.609-0.456-1.369-1.026-2.41-1.681
				c-2.621-1.643-3.694-2.762-4.129-3.354c-0.705,1.056-1.457,1.365-1.988,1.433c-0.736,0.092-1.484-0.223-2.105-0.888l-0.046-0.062
				c-0.745-1.383-1.962-3.604-2.223-4.002c-0.338-0.133-0.874-0.449-1.119-0.754c-0.58-0.715-1.007-1.389-1.26-1.813
				c-2.043,3.522-3.954,5.681-6.468,4.978c-1.625-0.461-2.221-1.576-1.926-3.617c0.903-6.258,2.479-10.583,3.653-12.545l0.199-0.332
				c2.344-3.922,3.757-6.288,7.524-9.074c2.66-1.965,7.769-5.087,11.498-7.367c1.662-1.016,3.101-1.894,3.954-2.446
				c3.835-2.474,6.388-1.174,9.917,0.626c3.579,1.825,20.264,9.122,25.53,10.886c1.616,0.541,3.628,0.97,5.979,1.274l-0.078,0.591
				c-2.387-0.31-4.438-0.747-6.092-1.301c-5.283-1.77-22.021-9.091-25.609-10.92c-3.797-1.935-5.934-2.844-9.323-0.657
				c-0.86,0.556-2.302,1.436-3.968,2.454c-3.719,2.274-8.813,5.387-11.455,7.337c-3.671,2.715-4.984,4.912-7.366,8.9l-0.198,0.333
				c-1.146,1.913-2.687,6.153-3.578,12.323c-0.252,1.754,0.168,2.582,1.5,2.957c1.946,0.55,3.645-0.896,6.049-5.152l0.271-0.484
				l0.253,0.494c0.007,0.012,0.539,1.055,1.453,2.184c0.185,0.226,0.69,0.516,0.933,0.595c0.143,0.045,0.215,0.069,2.453,4.216
				c0.483,0.504,1.041,0.745,1.573,0.676c0.661-0.08,1.285-0.621,1.804-1.562l0.33-0.597l0.213,0.646
				c0.002,0.007,0.496,1.227,4.159,3.521c1.063,0.668,1.832,1.244,2.45,1.707c1.059,0.795,1.512,1.111,2.02,1.002
				c0.787-0.166,1.051-0.461,1.055-0.465l0.107-0.127l0.172,0.022c0.013,0.004,1.156,0.205,1.772,0.25
				c1.165,0.091,5.646,0.019,6.937-0.027c0.502-0.018,1.244-0.217,1.681-0.719c0.317-0.362,0.446-0.851,0.385-1.446
				c-0.175-1.728-1.678-2.959-3.918-3.216c-0.999-0.116-2.901-0.433-3.452-0.545c-0.214-0.041-0.346-0.144-0.394-0.294
				c-0.074-0.241,0.097-0.426,0.282-0.618c0.174-0.187,0.394-0.414,0.471-0.7l0.053-0.199l0.205-0.019
				c0.098-0.012,0.479,0,1.339,0.521l0.071,0.041c1.058,0.643,1.972,1.194,4.09,1.738c0.43,0.107,0.965,0.285,1.589,0.488
				c2.185,0.715,5.483,1.795,10.179,2.164c1.959,0.152,3.965-0.166,5.903-0.473c1.772-0.281,3.446-0.549,4.959-0.433
				c0.31,0.021,0.613,0.05,0.923,0.075c1.771,0.156,3.604,0.316,7.741-0.057l0.054,0.594c-4.19,0.377-6.134,0.209-7.848,0.057
				c-0.309-0.027-0.607-0.053-0.916-0.076c-1.441-0.106-3.083,0.151-4.82,0.426c-1.974,0.313-4.013,0.637-6.041,0.479
				c-4.767-0.373-8.105-1.467-10.318-2.188c-0.288-0.096-0.557-0.185-0.807-0.262c0.711,0.639,1.149,1.469,1.25,2.437
				c0.08,0.766-0.101,1.405-0.529,1.897c-0.563,0.646-1.459,0.898-2.107,0.922c-1.299,0.045-5.818,0.119-7.005,0.026
				c-0.515-0.04-1.343-0.174-1.681-0.231c-0.185,0.15-0.564,0.393-1.256,0.537C131.997,46.462,131.893,46.475,131.789,46.475z
				 M137.072,39.048c0.544,0.101,1.572,0.271,2.42,0.392c-0.375-0.199-0.711-0.402-1.055-0.611l-0.07-0.044
				c-0.396-0.236-0.656-0.345-0.813-0.396C137.421,38.669,137.225,38.887,137.072,39.048z"/>
		</g>
		<g>
			<path fill="#010101" d="M114.257,34.753c-0.03,0-0.06-0.006-0.091-0.015c-0.156-0.051-0.243-0.217-0.193-0.375l0.549-1.732
				c0.049-0.158,0.215-0.244,0.373-0.195c0.155,0.049,0.242,0.217,0.193,0.375l-0.549,1.732
				C114.499,34.672,114.383,34.753,114.257,34.753z"/>
		</g>
		<g>
			<path fill="#010101" d="M123.146,40.791c-0.035,0-0.067-0.006-0.1-0.018c-0.154-0.055-0.236-0.227-0.182-0.379
				c0.002-0.011,0.343-1.002,0.213-2.332c-0.085-0.871-0.1-2.151-0.1-2.836c0-0.672-0.293-1.609-0.295-1.619
				c-0.051-0.157,0.037-0.323,0.192-0.373c0.158-0.051,0.323,0.037,0.373,0.193c0.015,0.041,0.325,1.034,0.325,1.799
				c0,0.545,0.011,1.899,0.095,2.776c0.146,1.472-0.229,2.544-0.244,2.59C123.382,40.714,123.268,40.791,123.146,40.791z"/>
		</g>
		<g>
			<path fill="#010101" d="M133.41,46.384c-0.077,0-0.154-0.03-0.213-0.089c-0.115-0.117-0.113-0.307,0.004-0.421
				c1.64-1.614,1.135-4.685-0.395-6.248c-1.324-1.354-3.259-2.401-3.279-2.412c-0.102-0.053-0.16-0.161-0.156-0.276
				c0.029-0.64-0.135-1.588-0.137-1.599c-0.027-0.161,0.082-0.315,0.242-0.344c0.162-0.027,0.316,0.079,0.344,0.241
				c0.009,0.039,0.15,0.861,0.15,1.541c0.508,0.289,2.086,1.229,3.264,2.433c1.72,1.761,2.262,5.241,0.385,7.089
				C133.561,46.355,133.484,46.384,133.41,46.384z"/>
		</g>
		<g>
			<path fill="#010101" d="M133.921,24.183c-0.122,0-0.237-0.078-0.282-0.201c-0.018-0.054-0.451-1.332-0.337-2.406
				c0.077-0.725,0.396-1.263,0.673-1.737c0.123-0.208,0.237-0.403,0.323-0.598c0.067-0.15,0.241-0.219,0.392-0.153
				c0.151,0.067,0.222,0.242,0.153,0.393c-0.099,0.226-0.223,0.436-0.353,0.66c-0.264,0.444-0.533,0.903-0.598,1.499
				c-0.101,0.944,0.305,2.138,0.311,2.15c0.054,0.156-0.029,0.325-0.186,0.378C133.986,24.177,133.953,24.183,133.921,24.183z"/>
		</g>
		<g>
			<path fill="#010101" d="M131.671,22.044c-0.971,0-2.144-0.108-3.147-0.51c-1.812-0.724-2.336-2.11-2.684-3.026l-0.081-0.21
				c-0.36-0.931-0.86-2.804-0.926-3.661c-0.015-0.164,0.108-0.308,0.272-0.319c0.162-0.012,0.308,0.109,0.318,0.273
				c0.063,0.797,0.549,2.616,0.891,3.492l0.082,0.214c0.348,0.917,0.778,2.059,2.347,2.686c1.522,0.608,3.544,0.478,4.397,0.384
				c-0.24-0.531-0.5-1.322-0.804-2.432c-0.269-0.976-0.489-3.286-0.397-4.19c0.125-1.295,0.095-3.079,0.093-3.098
				c-0.003-0.164,0.128-0.3,0.292-0.302c0.174-0.004,0.3,0.127,0.304,0.291c0.002,0.075,0.034,1.835-0.097,3.167
				c-0.083,0.837,0.131,3.066,0.381,3.975c0.135,0.499,0.549,2.017,0.941,2.679c0.049,0.084,0.056,0.189,0.015,0.277
				c-0.042,0.089-0.125,0.152-0.222,0.167C133.582,21.911,132.753,22.044,131.671,22.044z"/>
		</g>
		<g>
			<path fill="#010101" d="M134.991,24.151c-0.099,0-0.197-0.05-0.253-0.142c-0.088-0.14-0.043-0.323,0.097-0.41
				c0.019-0.011,1.847-1.155,2.138-2.379c0.038-0.159,0.2-0.257,0.359-0.219c0.16,0.038,0.259,0.198,0.223,0.358
				c-0.351,1.463-2.322,2.694-2.406,2.746C135.098,24.137,135.045,24.151,134.991,24.151z"/>
		</g>
		<g>
			<path fill="#010101" d="M121.041,23.202c-0.059,0-0.114-0.016-0.162-0.049c-0.093-0.06-2.286-1.497-4.238-3.91
				c-0.104-0.127-0.084-0.315,0.045-0.418c0.127-0.104,0.314-0.083,0.418,0.044c1.688,2.085,3.609,3.452,4.021,3.732
				c2.108-0.148,4.36-1.973,5.136-2.658c-0.445-0.318-1.201-0.997-1.626-2.171c-0.058-0.154,0.023-0.325,0.179-0.381
				c0.152-0.056,0.324,0.024,0.381,0.179c0.537,1.482,1.678,2.055,1.688,2.061c0.087,0.042,0.147,0.125,0.164,0.221
				c0.017,0.095-0.019,0.192-0.087,0.26c-0.122,0.121-3.064,2.959-5.904,3.09C121.051,23.202,121.045,23.202,121.041,23.202z"/>
		</g>
		<g>
			<path fill="#FFFFFF" d="M121.041,22.904c2.758-0.127,5.711-3.007,5.711-3.007c0.352,0.462,0.993,1.055,1.881,1.36
				c2.11,0.728,4.965,0.349,4.965,0.349c-0.107,1.021,0.323,2.278,0.323,2.278"/>
			<path fill="#010101" d="M133.921,24.183c-0.122,0-0.237-0.078-0.282-0.201c-0.016-0.048-0.359-1.063-0.356-2.041
				c-0.845,0.077-3.015,0.196-4.745-0.401c-0.878-0.302-1.48-0.842-1.813-1.21c-0.769,0.691-3.256,2.761-5.67,2.872
				c-0.162,0.005-0.304-0.119-0.312-0.283c-0.007-0.164,0.12-0.303,0.284-0.312c2.615-0.12,5.486-2.894,5.516-2.922
				c0.063-0.06,0.146-0.09,0.23-0.084c0.084,0.007,0.164,0.049,0.215,0.118c0.203,0.268,0.779,0.928,1.74,1.259
				c2.019,0.696,4.801,0.339,4.828,0.334c0.09-0.013,0.183,0.019,0.248,0.082c0.064,0.064,0.096,0.154,0.088,0.245
				c-0.101,0.944,0.305,2.138,0.311,2.15c0.054,0.156-0.029,0.325-0.186,0.378C133.986,24.177,133.953,24.183,133.921,24.183z"/>
		</g>
		<g>
			<path fill="#010101" d="M133.598,21.904c-0.05,0-0.101-0.013-0.146-0.038c-0.063-0.037-1.606-0.915-2.187-2.417
				c-0.061-0.153,0.016-0.326,0.168-0.385s0.326,0.017,0.387,0.169c0.505,1.306,1.91,2.105,1.924,2.113
				c0.143,0.081,0.193,0.261,0.115,0.405C133.803,21.849,133.702,21.904,133.598,21.904z"/>
		</g>
		<g>
			<path fill="#010101" d="M133.238,39.674c-0.141,0-0.266-0.099-0.293-0.238c-0.031-0.162,0.074-0.317,0.234-0.352
				c0.788-0.156,4.311-0.334,4.461-0.342c0.156-0.014,0.301,0.117,0.312,0.281c0.008,0.166-0.118,0.305-0.282,0.313
				c-0.037,0-3.628,0.183-4.374,0.332C133.275,39.672,133.256,39.674,133.238,39.674z"/>
		</g>
		<g>
			<path fill="#010101" d="M133.148,39.461c-0.153,0-0.285-0.119-0.295-0.275c-0.002-0.008-0.069-0.873-0.34-1.52
				c-0.063-0.15,0.008-0.325,0.159-0.389c0.152-0.064,0.325,0.008,0.39,0.16c0.31,0.735,0.381,1.664,0.383,1.703
				c0.012,0.164-0.11,0.307-0.274,0.317C133.163,39.461,133.154,39.461,133.148,39.461z"/>
		</g>
		<g>
			<path fill="#010101" d="M129.669,37.434c-0.049,0-0.099-0.012-0.144-0.035c-2.027-1.117-3.459-1.073-3.476-1.073
				c-0.151,0.01-0.302-0.121-0.31-0.286c-0.006-0.164,0.119-0.303,0.283-0.309c0.065-0.002,1.6-0.058,3.789,1.146
				c0.144,0.079,0.194,0.261,0.115,0.403C129.877,37.378,129.773,37.434,129.669,37.434z"/>
		</g>
		<g>
			<path fill="#010101" d="M129.669,37.305c-0.078,0-0.157-0.031-0.215-0.093c-0.009-0.008-0.8-0.829-1.81-1.212
				c-0.152-0.059-0.231-0.229-0.172-0.383c0.059-0.154,0.229-0.23,0.385-0.174c1.137,0.433,1.99,1.32,2.026,1.357
				c0.114,0.12,0.108,0.309-0.01,0.42C129.816,37.277,129.742,37.305,129.669,37.305z"/>
		</g>
		<g>
			<path fill="#010101" d="M135.65,23.628c-0.002,0-0.004,0-0.008,0c-0.166-0.006-0.295-0.143-0.291-0.307
				c0.061-2.094,1.385-5.188,1.44-5.32c0.065-0.151,0.241-0.22,0.392-0.155c0.149,0.066,0.221,0.24,0.155,0.392
				c-0.014,0.031-1.336,3.12-1.392,5.1C135.941,23.5,135.813,23.628,135.65,23.628z"/>
		</g>
		<g>
			<path fill="#FFFFFF" d="M142.52,45.876c0,0-0.555,0.11-2.223,0.087c-1.666-0.021-2.451-0.908-2.629-1.798
				c-0.438-2.181,1.557-2.276,1.557-2.276c0.644-0.02,1.955-0.107,1.955-0.107s0.6-0.086,0.688,0.434
				c0.089,0.521,0.348,2.102,0.831,3.188C142.818,45.667,142.861,45.843,142.52,45.876z"/>
			<path fill="#010101" d="M140.729,46.266c-0.136,0-0.279-0.002-0.437-0.004c-1.854-0.023-2.724-1.068-2.917-2.037
				c-0.156-0.771-0.048-1.402,0.316-1.873c0.552-0.705,1.478-0.756,1.518-0.759c0.615-0.022,1.855-0.103,1.945-0.108
				c0.005,0,0.052-0.006,0.119-0.006c0.476,0,0.814,0.263,0.889,0.686l0.01,0.061c0.096,0.559,0.348,2.045,0.797,3.057
				c0.069,0.156,0.184,0.412,0.053,0.641c-0.127,0.219-0.385,0.244-0.473,0.254l0,0C142.557,46.174,142.076,46.266,140.729,46.266z
				 M141.273,42.074c-0.026,0-0.049,0.002-0.056,0.002c-0.071,0.006-1.344,0.089-1.985,0.109c0,0-0.692,0.045-1.071,0.535
				c-0.252,0.325-0.321,0.793-0.203,1.387c0.073,0.358,0.456,1.533,2.343,1.56c1.482,0.021,2.073-0.067,2.154-0.081
				c-0.008-0.018-0.016-0.039-0.028-0.063c-0.481-1.082-0.743-2.621-0.841-3.201l-0.01-0.059
				C141.566,42.206,141.543,42.074,141.273,42.074z"/>
		</g>
		<g>
			<path fill="#FFFFFF" d="M128.795,41.318c0,0,1.084,0.58,1.405,0.787c0.317,0.209,0.446,0.664,0.317,1.162
				c-0.127,0.498-0.49,2.014,0.719,2.93c0.149,0.115,0.101,0.275-0.268,0.064c-0.367-0.212-2.791-2.097-3.451-2.634
				c-0.601-0.485-0.943-1.169-0.701-1.836C127.083,41.061,128.252,41.01,128.795,41.318z"/>
			<path fill="#010101" d="M131.244,46.662c-0.118,0-0.256-0.049-0.424-0.145c-0.391-0.224-2.856-2.145-3.49-2.66
				c-0.766-0.621-1.063-1.43-0.792-2.168c0.19-0.523,0.757-0.848,1.478-0.848c0.346,0,0.684,0.078,0.928,0.217
				c0.037,0.021,1.092,0.584,1.418,0.799c0.433,0.279,0.606,0.863,0.445,1.483c-0.311,1.216-0.111,2.072,0.609,2.617
				c0.164,0.126,0.232,0.304,0.178,0.466C131.547,46.568,131.41,46.662,131.244,46.662z M128.016,41.438
				c-0.363,0-0.795,0.119-0.918,0.455c-0.178,0.488,0.049,1.049,0.607,1.504c0.454,0.369,1.682,1.326,2.543,1.977
				c-0.229-0.598-0.234-1.325-0.02-2.178c0.096-0.365,0.018-0.703-0.192-0.84c-0.304-0.199-1.369-0.77-1.382-0.774
				C128.495,41.49,128.258,41.438,128.016,41.438z"/>
		</g>
		<g>
			<path fill="#FFFFFF" d="M118.396,37.527c0,0-0.805-0.895-1.354-1.34c-0.549-0.444-0.659-0.195-0.587,0.107
				c0.072,0.305,1.631,3.5,2.234,4.339c0.342,0.474,0.731,0.804,1.026,0.837c0.292,0.038-0.017-0.047-0.606-0.928
				c-0.623-0.928-0.457-1.999-0.457-1.999C118.764,38.1,118.579,37.741,118.396,37.527z"/>
			<path fill="#010101" d="M119.791,41.777L119.791,41.777c-0.025,0-0.063-0.004-0.111-0.01c-0.533-0.063-1.039-0.69-1.229-0.959
				c-0.626-0.869-2.197-4.084-2.282-4.443c-0.057-0.23-0.029-0.422,0.075-0.555c0.081-0.104,0.202-0.162,0.342-0.162
				c0.183,0,0.388,0.097,0.646,0.309c0.562,0.456,1.355,1.334,1.391,1.37c0.189,0.223,0.475,0.677,0.322,1.289l0,0
				c0.002,0-0.127,0.954,0.418,1.763c0.265,0.395,0.464,0.617,0.584,0.75c0.111,0.126,0.24,0.27,0.156,0.462
				C120.08,41.634,119.999,41.777,119.791,41.777z M116.803,36.379c0.227,0.529,1.004,2.126,1.604,3.212
				c-0.12-0.596-0.051-1.062-0.047-1.092c0.089-0.362-0.055-0.621-0.188-0.778c-0.002-0.002-0.792-0.875-1.315-1.302
				C116.836,36.404,116.818,36.391,116.803,36.379z"/>
		</g>
		<g>
			<path fill="#FFFFFF" d="M137.596,38.501c0,0-3.973-1.612-6.15-2.536c-2.817-1.191-5.713-1.925-8.305-2.445
				c-2.591-0.52-6.701-0.242-11.305-1.442c-1.502-0.39-2.884-0.746-4.092-1.082c-1.66-0.46-3.096-1.808-2.909-3.976
				c0.13-1.514,0.774-3.524,3.835-4.393c2.112-0.598,4.7-0.601,5.962-0.651c3.902-0.156,7.522,0.801,10.193,1.563
				c2.673,0.76,5.632,0.6,7.563,0.24c1.934-0.362,2.016-0.362,3.535-0.322c1.521,0.041,2.551-0.401,2.551-0.401"/>
			<path fill="#010101" d="M137.596,38.797c-0.037,0-0.076-0.006-0.113-0.021c-0.039-0.016-3.996-1.623-6.154-2.535
				c-2.366-1.002-4.986-1.771-8.247-2.426c-0.976-0.198-2.173-0.278-3.562-0.371c-2.182-0.148-4.896-0.332-7.758-1.076l-0.469-0.122
				c-1.309-0.343-2.544-0.662-3.628-0.962c-1.649-0.458-3.338-1.826-3.127-4.289c0.206-2.384,1.569-3.949,4.051-4.653
				c1.88-0.531,4.14-0.602,5.49-0.643c0.198-0.006,0.381-0.013,0.54-0.02c4.18-0.167,8.152,0.967,10.289,1.574
				c3.184,0.908,6.49,0.41,7.428,0.236c1.973-0.37,2.064-0.368,3.598-0.328c1.444,0.039,2.414-0.373,2.424-0.376
				c0.149-0.064,0.326,0.004,0.392,0.156c0.063,0.151-0.006,0.325-0.156,0.391c-0.046,0.02-1.104,0.468-2.675,0.425
				c-1.502-0.041-1.563-0.042-3.473,0.316c-0.969,0.181-4.391,0.695-7.7-0.247c-2.103-0.599-6.015-1.715-10.101-1.553
				c-0.162,0.007-0.347,0.014-0.547,0.019c-1.324,0.042-3.537,0.11-5.345,0.622c-2.252,0.639-3.437,1.99-3.62,4.131
				c-0.182,2.101,1.271,3.271,2.689,3.664c1.08,0.3,2.313,0.62,3.619,0.959l0.47,0.123c2.81,0.729,5.379,0.903,7.649,1.056
				c1.406,0.098,2.623,0.18,3.637,0.383c3.302,0.664,5.959,1.445,8.363,2.463c2.152,0.912,6.106,2.519,6.146,2.533
				c0.151,0.063,0.226,0.235,0.164,0.387C137.824,38.729,137.713,38.797,137.596,38.797z"/>
		</g>
		<g>
			<path fill="#FFFFFF" d="M110.938,30.814c0.617,0,2.158,0.381,2.445-2.627c0.338-3.516-1.583-4.29-2.097-4.389l-2.035-0.221
				c-0.985-0.06-3.549,0.383-3.597,3.869c-0.021,1.523,0.931,2.859,3.166,3.146C109.602,30.693,110.771,30.814,110.938,30.814z"/>
			<path fill="#010101" d="M111.408,31.126L111.408,31.126c-0.104,0-0.203-0.004-0.295-0.01c-0.064-0.003-0.125-0.005-0.176-0.005
				c-0.203,0-1.438-0.131-2.155-0.223c-2.169-0.279-3.448-1.566-3.425-3.445c0.041-3.076,2.033-4.167,3.728-4.167
				c0.065,0,0.128,0.002,0.188,0.005l2.047,0.222c0.136,0.025,2.756,0.583,2.359,4.713C113.492,30.175,112.75,31.126,111.408,31.126
				z M109.085,23.871c-0.517,0-3.086,0.174-3.133,3.581c-0.021,1.569,1.04,2.606,2.907,2.846c0.822,0.106,1.943,0.22,2.078,0.22
				c0.062,0,0.131,0.002,0.205,0.006c0.082,0.004,0.17,0.011,0.266,0.011c0.002,0,0.002,0,0.002,0c0.436,0,1.449-0.005,1.678-2.373
				c0.344-3.598-1.768-4.051-1.857-4.068l-2.01-0.217C109.189,23.873,109.139,23.871,109.085,23.871z"/>
		</g>
		<g>
			<g>
				<path fill="#010101" d="M118.891,32.27c-0.065,0-0.132-0.021-0.187-0.064c-1.078-0.866-1.668-2.309-1.753-4.279
					c-0.087-1.931,1.938-3.943,2.023-4.027c0.115-0.115,0.305-0.113,0.42,0.004c0.113,0.116,0.111,0.305-0.004,0.42
					c-0.019,0.018-1.92,1.91-1.847,3.578c0.079,1.818,0.58,3.074,1.532,3.841c0.128,0.103,0.146,0.29,0.045,0.419
					C119.063,32.23,118.979,32.27,118.891,32.27z"/>
			</g>
			<g>
				<path fill="#010101" d="M120.51,31.959c-0.041,0-0.085-0.01-0.123-0.027c-0.15-0.068-0.216-0.244-0.146-0.395
					c0.002-0.006,0.303-0.684,0.162-1.479c-0.313-1.791-0.189-2.216,0.113-3.242l0.104-0.356c0.344-1.196-0.021-2.404-0.024-2.416
					c-0.05-0.158,0.039-0.325,0.196-0.373c0.158-0.049,0.324,0.039,0.373,0.196c0.017,0.056,0.419,1.392,0.028,2.756
					c-0.039,0.13-0.073,0.25-0.107,0.361c-0.29,0.986-0.389,1.318-0.1,2.969c0.175,0.984-0.19,1.798-0.207,1.832
					C120.729,31.895,120.622,31.959,120.51,31.959z"/>
			</g>
			<g>
				<path fill="#010101" d="M119.979,32.012c-0.105,0-0.209-0.059-0.262-0.156c-0.042-0.078-0.089-0.162-0.145-0.256
					c-0.344-0.602-0.916-1.604-1.084-2.927c-0.191-1.528,0.439-3.273,0.468-3.347c0.056-0.154,0.228-0.234,0.382-0.176
					c0.153,0.057,0.234,0.227,0.178,0.381c-0.007,0.018-0.607,1.686-0.435,3.067c0.151,1.207,0.687,2.145,1.009,2.705
					c0.057,0.1,0.108,0.19,0.151,0.27c0.077,0.146,0.024,0.326-0.12,0.404C120.076,31.999,120.025,32.012,119.979,32.012z"/>
			</g>
			<g>
				<path fill="#010101" d="M121.598,32.191c-0.052,0-0.103-0.012-0.149-0.039c-0.142-0.082-0.191-0.264-0.108-0.406
					c0.018-0.029,1.688-3.008,0.239-7.519c-0.052-0.156,0.034-0.324,0.19-0.375c0.156-0.05,0.323,0.036,0.375,0.193
					c1.537,4.777-0.215,7.871-0.289,7.999C121.799,32.141,121.7,32.191,121.598,32.191z"/>
			</g>
		</g>
	</g>
</g>
</svg>
